<svg width="30" height="30" viewBox="0 0 30 30" fill="none" xmlns="http://www.w3.org/2000/svg">
<g clip-path="url(#clip0_535_10040)">
<path opacity="0.2" d="M15 15.1276V27.1874C14.8425 27.1868 14.6878 27.1465 14.55 27.0702L4.2375 21.4265C4.09025 21.3459 3.96733 21.2273 3.88157 21.083C3.79582 20.9387 3.75038 20.774 3.75 20.6062V9.39834C3.75004 9.26625 3.778 9.13567 3.83203 9.01514L15 15.1276Z" fill="#121212"/>
<path d="M3.83203 9.01416L15 15.1267L26.168 9.01416" stroke="#121212" stroke-width="1.5" stroke-linecap="round" stroke-linejoin="round"/>
<path d="M15.45 2.92976L25.7625 8.57585C25.9098 8.65642 26.0327 8.77505 26.1184 8.91934C26.2042 9.06364 26.2496 9.22831 26.25 9.39616V20.604C26.2496 20.7718 26.2042 20.9365 26.1184 21.0808C26.0327 21.2251 25.9098 21.3437 25.7625 21.4243L15.45 27.0704C15.312 27.1459 15.1573 27.1854 15 27.1854C14.8427 27.1854 14.688 27.1459 14.55 27.0704L4.2375 21.4243C4.09025 21.3437 3.96733 21.2251 3.88157 21.0808C3.79582 20.9365 3.75038 20.7718 3.75 20.604V9.39616C3.75038 9.22831 3.79582 9.06364 3.88157 8.91934C3.96733 8.77505 4.09025 8.65642 4.2375 8.57585L14.55 2.92976C14.688 2.85427 14.8427 2.8147 15 2.8147C15.1573 2.8147 15.312 2.85427 15.45 2.92976Z" stroke="#121212" stroke-width="1.5" stroke-linecap="round" stroke-linejoin="round"/>
<path d="M15 15.1277V27.1875" stroke="#121212" stroke-width="1.5" stroke-linecap="round" stroke-linejoin="round"/>
</g>
<defs>
<clipPath id="clip0_535_10040">
<rect width="30" height="30" fill="white"/>
</clipPath>
</defs>
</svg>
