<svg width="30" height="30" viewBox="0 0 30 30" fill="none" xmlns="http://www.w3.org/2000/svg">
<g clip-path="url(#clip0_535_10046)">
<path opacity="0.2" d="M18.75 11.25C18.75 10.7527 18.9475 10.2758 19.2992 9.92418C19.6508 9.57254 20.1277 9.375 20.625 9.375H23.4375V7.5C23.4375 7.00272 23.24 6.52581 22.8883 6.17417C22.5367 5.82254 22.0598 5.625 21.5625 5.625H4.6875C4.19022 5.625 3.71331 5.82254 3.36167 6.17417C3.01004 6.52581 2.8125 7.00272 2.8125 7.5V18.75C2.8125 19.2473 3.01004 19.7242 3.36167 20.0758C3.71331 20.4275 4.19022 20.625 4.6875 20.625H18.75V11.25Z" fill="#121212"/>
<path d="M28.125 22.5V11.25C28.125 10.2145 27.2855 9.375 26.25 9.375H20.625C19.5895 9.375 18.75 10.2145 18.75 11.25V22.5C18.75 23.5355 19.5895 24.375 20.625 24.375H26.25C27.2855 24.375 28.125 23.5355 28.125 22.5Z" stroke="#121212" stroke-width="1.5" stroke-linecap="round" stroke-linejoin="round"/>
<path d="M15 24.375H10.3125" stroke="#121212" stroke-width="1.5" stroke-linecap="round" stroke-linejoin="round"/>
<path d="M18.75 20.625H4.6875C4.19022 20.625 3.71331 20.4275 3.36167 20.0758C3.01004 19.7242 2.8125 19.2473 2.8125 18.75V7.5C2.8125 7.00272 3.01004 6.52581 3.36167 6.17417C3.71331 5.82254 4.19022 5.625 4.6875 5.625H21.5625C22.0598 5.625 22.5367 5.82254 22.8883 6.17417C23.24 6.52581 23.4375 7.00272 23.4375 7.5V9.375" stroke="#121212" stroke-width="1.5" stroke-linecap="round" stroke-linejoin="round"/>
<path d="M22.5 13.125H24.375" stroke="#121212" stroke-width="1.5" stroke-linecap="round" stroke-linejoin="round"/>
</g>
<defs>
<clipPath id="clip0_535_10046">
<rect width="30" height="30" fill="white"/>
</clipPath>
</defs>
</svg>
