<svg width="30" height="30" viewBox="0 0 30 30" fill="none" xmlns="http://www.w3.org/2000/svg">
<g clip-path="url(#clip0_535_10033)">
<path opacity="0.2" d="M14.9997 3.75C12.7238 3.74986 10.5015 4.43998 8.626 5.72924C6.75054 7.01849 5.3102 8.84624 4.49517 10.9712C3.68014 13.0961 3.52875 15.4182 4.06099 17.631C4.59323 19.8437 5.78407 21.843 7.47627 23.3648C8.18205 21.9761 9.25854 20.8098 10.5865 19.9953C11.9144 19.1807 13.4419 18.7497 14.9997 18.75C14.0726 18.75 13.1663 18.4751 12.3955 17.96C11.6246 17.4449 11.0238 16.7129 10.669 15.8563C10.3142 14.9998 10.2214 14.0573 10.4023 13.148C10.5831 12.2387 11.0296 11.4035 11.6851 10.7479C12.3407 10.0924 13.1759 9.64594 14.0852 9.46507C14.9945 9.2842 15.937 9.37703 16.7935 9.73181C17.6501 10.0866 18.3822 10.6874 18.8972 11.4583C19.4123 12.2291 19.6872 13.1354 19.6872 14.0625C19.6872 15.3057 19.1933 16.498 18.3143 17.3771C17.4352 18.2561 16.2429 18.75 14.9997 18.75C16.5574 18.7496 18.0848 19.1804 19.4127 19.9948C20.7406 20.8091 21.8172 21.9751 22.5231 23.3637C24.2149 21.8417 25.4054 19.8425 25.9373 17.63C26.4693 15.4175 26.3178 13.0956 25.5029 10.9709C24.6879 8.84629 23.2477 7.01874 21.3726 5.72954C19.4974 4.44035 17.2753 3.75013 14.9997 3.75Z" fill="#121212"/>
<path d="M15 18.75C17.5888 18.75 19.6875 16.6513 19.6875 14.0625C19.6875 11.4737 17.5888 9.375 15 9.375C12.4112 9.375 10.3125 11.4737 10.3125 14.0625C10.3125 16.6513 12.4112 18.75 15 18.75Z" stroke="#121212" stroke-width="1.5" stroke-linecap="round" stroke-linejoin="round"/>
<path d="M7.47656 23.3638C8.18193 21.9744 9.25823 20.8075 10.5862 19.9924C11.9141 19.1773 13.4418 18.7458 15 18.7458C16.5582 18.7458 18.0859 19.1773 19.4138 19.9924C20.7418 20.8075 21.8181 21.9744 22.5234 23.3638" stroke="#121212" stroke-width="1.5" stroke-linecap="round" stroke-linejoin="round"/>
<path d="M26.0939 13.125C26.4894 15.4751 26.1279 17.89 25.0614 20.0211C23.9949 22.1522 22.2787 23.8892 20.1606 24.9813C18.0426 26.0735 15.6322 26.4642 13.2776 26.0971C10.923 25.73 8.74595 24.624 7.06087 22.939C5.37579 21.2539 4.26985 19.0769 3.90274 16.7222C3.53564 14.3676 3.92636 11.9573 5.01849 9.83918C6.11062 7.72111 7.84765 6.00493 9.97875 4.93846C12.1099 3.87198 14.5248 3.51039 16.8748 3.90591" stroke="#121212" stroke-width="1.5" stroke-linecap="round" stroke-linejoin="round"/>
<path d="M21.5625 6.5625L23.4375 8.4375L27.1875 4.6875" stroke="#121212" stroke-width="1.5" stroke-linecap="round" stroke-linejoin="round"/>
</g>
<defs>
<clipPath id="clip0_535_10033">
<rect width="30" height="30" fill="white"/>
</clipPath>
</defs>
</svg>
