<svg width="30" height="30" viewBox="0 0 30 30" fill="none" xmlns="http://www.w3.org/2000/svg">
<g clip-path="url(#clip0_535_10022)">
<path opacity="0.2" d="M15 21.5625C17.5888 21.5625 19.6875 19.4638 19.6875 16.875C19.6875 14.2862 17.5888 12.1875 15 12.1875C12.4112 12.1875 10.3125 14.2862 10.3125 16.875C10.3125 19.4638 12.4112 21.5625 15 21.5625Z" fill="#121212"/>
<path opacity="0.2" d="M7.5 14.0625C9.57107 14.0625 11.25 12.3836 11.25 10.3125C11.25 8.24143 9.57107 6.5625 7.5 6.5625C5.42893 6.5625 3.75 8.24143 3.75 10.3125C3.75 12.3836 5.42893 14.0625 7.5 14.0625Z" fill="#121212"/>
<path opacity="0.2" d="M22.5 14.0625C24.5711 14.0625 26.25 12.3836 26.25 10.3125C26.25 8.24143 24.5711 6.5625 22.5 6.5625C20.4289 6.5625 18.75 8.24143 18.75 10.3125C18.75 12.3836 20.4289 14.0625 22.5 14.0625Z" fill="#121212"/>
<path d="M22.5 14.0625C23.5917 14.0617 24.6686 14.3155 25.645 14.8037C26.6215 15.2919 27.4706 16.0011 28.125 16.875" stroke="#121212" stroke-width="1.5" stroke-linecap="round" stroke-linejoin="round"/>
<path d="M1.875 16.875C2.52937 16.0011 3.37852 15.2919 4.35497 14.8037C5.33143 14.3155 6.40829 14.0617 7.5 14.0625" stroke="#121212" stroke-width="1.5" stroke-linecap="round" stroke-linejoin="round"/>
<path d="M15 21.5625C17.5888 21.5625 19.6875 19.4638 19.6875 16.875C19.6875 14.2862 17.5888 12.1875 15 12.1875C12.4112 12.1875 10.3125 14.2862 10.3125 16.875C10.3125 19.4638 12.4112 21.5625 15 21.5625Z" stroke="#121212" stroke-width="1.5" stroke-linecap="round" stroke-linejoin="round"/>
<path d="M8.4375 25.3125C9.11049 24.1704 10.0699 23.2238 11.2208 22.5661C12.3718 21.9084 13.6744 21.5625 15 21.5625C16.3256 21.5625 17.6282 21.9084 18.7792 22.5661C19.9301 23.2238 20.8895 24.1704 21.5625 25.3125" stroke="#121212" stroke-width="1.5" stroke-linecap="round" stroke-linejoin="round"/>
<path d="M18.8672 9.375C19.0425 8.69597 19.4047 8.07972 19.9127 7.59621C20.4207 7.11271 21.0541 6.78134 21.7409 6.63974C22.4278 6.49814 23.1406 6.55197 23.7984 6.79514C24.4561 7.0383 25.0326 7.46104 25.4622 8.01536C25.8918 8.56967 26.1573 9.23334 26.2287 9.931C26.3 10.6287 26.1743 11.3323 25.8658 11.9621C25.5573 12.5919 25.0784 13.1226 24.4834 13.4939C23.8884 13.8651 23.2013 14.0621 22.5 14.0625" stroke="#121212" stroke-width="1.5" stroke-linecap="round" stroke-linejoin="round"/>
<path d="M7.50006 14.0625C6.79877 14.0621 6.11162 13.8651 5.51667 13.4939C4.92171 13.1226 4.44279 12.5919 4.13429 11.9621C3.82578 11.3323 3.70007 10.6287 3.77141 9.931C3.84276 9.23334 4.1083 8.56967 4.5379 8.01536C4.96749 7.46104 5.54392 7.0383 6.20171 6.79514C6.8595 6.55197 7.57229 6.49814 8.25914 6.63974C8.94599 6.78134 9.57938 7.11271 10.0874 7.59621C10.5953 8.07972 10.9576 8.69597 11.1329 9.375" stroke="#121212" stroke-width="1.5" stroke-linecap="round" stroke-linejoin="round"/>
</g>
<defs>
<clipPath id="clip0_535_10022">
<rect width="30" height="30" fill="white"/>
</clipPath>
</defs>
</svg>
