<svg width="24" height="24" viewBox="0 0 24 24" fill="none" xmlns="http://www.w3.org/2000/svg">
<path d="M9.5 17C9.5 17.663 9.76339 18.2989 10.2322 18.7678C10.7011 19.2366 11.337 19.5 12 19.5C12.663 19.5 13.2989 19.2366 13.7678 18.7678C14.2366 18.2989 14.5 17.663 14.5 17" stroke="#1599D0" stroke-width="1.2" stroke-linecap="round" stroke-linejoin="round"/>
<path d="M6.3749 10.125C6.3749 8.63316 6.96753 7.20242 8.02243 6.14752C9.07732 5.09263 10.5081 4.5 11.9999 4.5C13.4917 4.5 14.9225 5.09263 15.9774 6.14752C17.0323 7.20242 17.6249 8.63316 17.6249 10.125C17.6249 12.9234 18.2733 15.1719 18.789 16.0625C18.8437 16.1574 18.8726 16.2649 18.8727 16.3745C18.8728 16.484 18.8441 16.5916 18.7895 16.6865C18.7349 16.7815 18.6563 16.8604 18.5616 16.9154C18.4669 16.9705 18.3594 16.9996 18.2499 17H5.7499C5.64051 16.9993 5.53321 16.97 5.43872 16.9149C5.34423 16.8597 5.26587 16.7808 5.21146 16.6859C5.15705 16.591 5.1285 16.4835 5.12866 16.3741C5.12883 16.2647 5.1577 16.1572 5.2124 16.0625C5.72725 15.1719 6.3749 12.9227 6.3749 10.125Z" stroke="#121212" stroke-width="1.2" stroke-linecap="round" stroke-linejoin="round"/>
</svg>
