<svg width="38" height="38" viewBox="0 0 38 38" fill="none" xmlns="http://www.w3.org/2000/svg">
<g clip-path="url(#clip0_419_12384)">
<mask id="mask0_419_12384" style="mask-type:luminance" maskUnits="userSpaceOnUse" x="4" y="4" width="38" height="38">
<path d="M42 4H4V42H42V4Z" fill="white"/>
<path d="M25.3823 7.58156C27.0468 7.21168 27.879 7.02674 28.5321 7.24186C29.1047 7.43048 29.59 7.81971 29.8984 8.33783C30.25 8.92874 30.25 9.78126 30.25 11.4863V22.0412C30.25 23.1861 30.25 23.7586 30.0471 24.231C29.8681 24.6476 29.5793 25.0077 29.2114 25.2728C28.7943 25.5733 28.2354 25.6976 27.1178 25.9458L19.4339 27.6535C19.272 27.6895 19.191 27.7073 19.1093 27.7146C19.0365 27.721 18.9635 27.721 18.8907 27.7146C18.809 27.7073 18.728 27.6895 18.5661 27.6535L10.8823 25.9458C9.76462 25.6976 9.2058 25.5733 8.78866 25.2728C8.42072 25.0077 8.13181 24.6476 7.95288 24.231C7.75 23.7585 7.75 23.1861 7.75 22.0412V11.4863C7.75 9.78126 7.75 8.92874 8.10167 8.33783C8.41004 7.81971 8.89525 7.43048 9.46793 7.24186C10.1211 7.02674 10.9533 7.21168 12.6177 7.58156L18.5661 8.90343C18.728 8.93941 18.809 8.95739 18.8907 8.96457C18.9635 8.97094 19.0365 8.97094 19.1093 8.96457C19.191 8.95739 19.272 8.93941 19.4339 8.90343L25.3823 7.58156Z" fill="black"/>
</mask>
<g mask="url(#mask0_419_12384)">
<path d="M28.75 12.75C30.1501 12.75 30.8503 12.75 31.385 13.0225C31.8554 13.2622 32.2379 13.6446 32.4775 14.115C32.75 14.6498 32.75 15.3499 32.75 16.75V22.25C32.75 25.0503 32.75 26.4504 32.205 27.52C31.7256 28.4607 30.9608 29.2256 30.02 29.705C28.9504 30.25 27.5503 30.25 24.75 30.25C24.0004 30.25 23.1846 30.1566 22.4432 30.2887C21.9391 30.3786 21.537 30.642 21.1173 30.9217C20.7954 31.1364 20.4729 31.4125 20.0909 31.4806C19.9821 31.5 19.8695 31.5 19.6445 31.5H18.3555C18.1305 31.5 18.0179 31.5 17.9091 31.4806C17.5271 31.4125 17.2046 31.1364 16.8827 30.9217C16.463 30.642 16.0609 30.3786 15.5568 30.2887C14.8154 30.1566 13.9996 30.25 13.25 30.25C10.4497 30.25 9.0496 30.25 7.98005 29.705C7.03924 29.2256 6.27434 28.4607 5.79496 27.52C5.25 26.4504 5.25 25.0503 5.25 22.25V16.75C5.25 15.3499 5.25 14.6498 5.52249 14.115C5.76216 13.6446 6.14463 13.2622 6.61503 13.0225C7.1498 12.75 7.84987 12.75 9.25 12.75H28.75Z" fill="url(#paint0_linear_419_12384)"/>
</g>
<mask id="mask1_419_12384" style="mask-type:luminance" maskUnits="userSpaceOnUse" x="7" y="7" width="24" height="21">
<path d="M25.3823 7.58156C27.0468 7.21168 27.879 7.02674 28.5321 7.24186C29.1047 7.43048 29.59 7.81971 29.8984 8.33783C30.25 8.92874 30.25 9.78126 30.25 11.4863V22.0412C30.25 23.1861 30.25 23.7586 30.0471 24.231C29.8681 24.6476 29.5793 25.0077 29.2114 25.2728C28.7943 25.5733 28.2354 25.6976 27.1178 25.9458L19.4339 27.6535C19.272 27.6895 19.191 27.7073 19.1093 27.7146C19.0365 27.721 18.9635 27.721 18.8907 27.7146C18.809 27.7073 18.728 27.6895 18.5661 27.6535L10.8823 25.9458C9.76462 25.6976 9.2058 25.5733 8.78866 25.2728C8.42072 25.0077 8.13181 24.6476 7.95288 24.231C7.75 23.7585 7.75 23.1861 7.75 22.0412V11.4863C7.75 9.78126 7.75 8.92874 8.10167 8.33783C8.41004 7.81971 8.89525 7.43048 9.46793 7.24186C10.1211 7.02674 10.9533 7.21168 12.6177 7.58156L18.5661 8.90343C18.728 8.93941 18.809 8.95739 18.8907 8.96457C18.9635 8.97094 19.0365 8.97094 19.1093 8.96457C19.191 8.95739 19.272 8.93941 19.4339 8.90343L25.3823 7.58156Z" fill="white"/>
</mask>
<g mask="url(#mask1_419_12384)">
<g filter="url(#filter0_f_419_12384)">
<path d="M28.75 12.75C30.1501 12.75 30.8503 12.75 31.385 13.0225C31.8554 13.2622 32.2379 13.6446 32.4775 14.115C32.75 14.6498 32.75 15.3499 32.75 16.75V22.25C32.75 25.0503 32.75 26.4504 32.205 27.52C31.7256 28.4607 30.9608 29.2256 30.02 29.705C28.9504 30.25 27.5503 30.25 24.75 30.25C24.0004 30.25 23.1846 30.1566 22.4432 30.2887C21.9391 30.3786 21.537 30.642 21.1173 30.9217C20.7954 31.1364 20.4729 31.4125 20.0909 31.4806C19.9821 31.5 19.8695 31.5 19.6445 31.5H18.3555C18.1305 31.5 18.0179 31.5 17.9091 31.4806C17.5271 31.4125 17.2046 31.1364 16.8827 30.9217C16.463 30.642 16.0609 30.3786 15.5568 30.2887C14.8154 30.1566 13.9996 30.25 13.25 30.25C10.4497 30.25 9.0496 30.25 7.98005 29.705C7.03924 29.2256 6.27434 28.4607 5.79496 27.52C5.25 26.4504 5.25 25.0503 5.25 22.25V16.75C5.25 15.3499 5.25 14.6498 5.52249 14.115C5.76216 13.6446 6.14463 13.2622 6.61503 13.0225C7.1498 12.75 7.84987 12.75 9.25 12.75H28.75Z" fill="url(#paint1_linear_419_12384)"/>
</g>
</g>
<path d="M25.3823 7.58156C27.0468 7.21168 27.879 7.02674 28.5321 7.24186C29.1047 7.43048 29.59 7.81971 29.8984 8.33783C30.25 8.92874 30.25 9.78126 30.25 11.4863V22.0412C30.25 23.1861 30.25 23.7586 30.0471 24.231C29.8681 24.6476 29.5793 25.0077 29.2114 25.2728C28.7943 25.5733 28.2354 25.6976 27.1178 25.9458L19.4339 27.6535C19.272 27.6895 19.191 27.7073 19.1093 27.7146C19.0365 27.721 18.9635 27.721 18.8907 27.7146C18.809 27.7073 18.728 27.6895 18.5661 27.6535L10.8823 25.9458C9.76462 25.6976 9.2058 25.5733 8.78866 25.2728C8.42072 25.0077 8.13181 24.6476 7.95288 24.231C7.75 23.7585 7.75 23.1861 7.75 22.0412V11.4863C7.75 9.78126 7.75 8.92874 8.10167 8.33783C8.41004 7.81971 8.89525 7.43048 9.46793 7.24186C10.1211 7.02674 10.9533 7.21168 12.6177 7.58156L18.5661 8.90343C18.728 8.93941 18.809 8.95739 18.8907 8.96457C18.9635 8.97094 19.0365 8.97094 19.1093 8.96457C19.191 8.95739 19.272 8.93941 19.4339 8.90343L25.3823 7.58156Z" fill="url(#paint2_linear_419_12384)"/>
<path d="M29.3125 11.4863C29.3125 10.6168 29.3118 10.0254 29.2723 9.57593C29.2334 9.13495 29.1636 8.93712 29.0928 8.81787C28.9 8.49403 28.5963 8.24971 28.2383 8.13183C28.1065 8.08856 27.8981 8.06431 27.4595 8.12206C27.0121 8.181 26.4345 8.30818 25.5858 8.49682L19.6372 9.81885C19.4985 9.84968 19.3486 9.88438 19.1916 9.8982C19.0645 9.90935 18.9355 9.90935 18.8084 9.8982C18.6514 9.88438 18.5015 9.84968 18.3628 9.81885L12.4143 8.49682C11.5655 8.30818 10.9879 8.181 10.5405 8.12206C10.1018 8.06431 9.89349 8.08856 9.76172 8.13183C9.4038 8.24971 9.09995 8.49403 8.90723 8.81787C8.83639 8.93712 8.76657 9.13495 8.72779 9.57593C8.68827 10.0254 8.6875 10.6168 8.6875 11.4863V22.0418C8.6875 22.6276 8.68845 23.017 8.71069 23.32C8.73206 23.6107 8.77006 23.7572 8.81445 23.8607C8.92629 24.1211 9.10695 24.3468 9.33691 24.5126C9.42826 24.5783 9.56318 24.6471 9.84229 24.7311C10.1333 24.8185 10.5141 24.9042 11.0862 25.0313L18.7692 26.738C18.8545 26.7568 18.9018 26.7675 18.9377 26.7746C18.9665 26.7801 18.9731 26.7806 18.9731 26.7806C18.991 26.7822 19.009 26.7822 19.0269 26.7806C19.0269 26.7806 19.0335 26.7801 19.0623 26.7746C19.0982 26.7675 19.1455 26.7568 19.2308 26.738L26.9139 25.0313C27.486 24.9042 27.8668 24.8185 28.1578 24.7311C28.4369 24.6471 28.5717 24.5783 28.6631 24.5126C28.893 24.3468 29.0737 24.1211 29.1855 23.8607C29.2299 23.7572 29.2679 23.6107 29.2892 23.32C29.3115 23.017 29.3125 22.6276 29.3125 22.0418V11.4863ZM30.25 22.0418L30.2464 22.7998C30.2369 23.4658 30.1994 23.8763 30.0474 24.2306L29.9754 24.3843C29.7951 24.7362 29.5332 25.0411 29.2111 25.2731L29.0476 25.3781C28.6459 25.6066 28.0956 25.7283 27.1176 25.9457L19.4334 27.6535C19.2717 27.6893 19.1904 27.7073 19.1086 27.7145C19.0725 27.7176 19.0363 27.7193 19 27.7193L18.8914 27.7145C18.8504 27.7108 18.8091 27.7048 18.7582 27.695L18.5666 27.6535L10.8823 25.9457C9.90434 25.7283 9.35409 25.6066 8.95239 25.3781L8.78881 25.2731C8.42089 25.008 8.13158 24.6472 7.95264 24.2306C7.80065 23.8763 7.76316 23.4658 7.75366 22.7998L7.75 22.0418V11.4863C7.75 9.8879 7.74956 9.03846 8.03931 8.45166L8.10156 8.33813C8.37144 7.88467 8.7767 7.5292 9.25756 7.32127L9.46753 7.24193C10.1207 7.02681 10.9537 7.21141 12.6182 7.58128L18.5666 8.90332C18.7283 8.93923 18.8096 8.95718 18.8914 8.96436C18.9636 8.97066 19.0364 8.97066 19.1086 8.96436C19.1904 8.95718 19.2717 8.93923 19.4334 8.90332L25.3819 7.58128C27.0462 7.21141 27.8794 7.02681 28.5325 7.24193C29.105 7.4306 29.5901 7.82012 29.8985 8.33813C30.25 8.92903 30.25 9.78156 30.25 11.4863V22.0418Z" fill="url(#paint3_linear_419_12384)"/>
</g>
<defs>
<filter id="filter0_f_419_12384" x="0.25" y="7.75" width="37.5" height="28.75" filterUnits="userSpaceOnUse" color-interpolation-filters="sRGB">
<feFlood flood-opacity="0" result="BackgroundImageFix"/>
<feBlend mode="normal" in="SourceGraphic" in2="BackgroundImageFix" result="shape"/>
<feGaussianBlur stdDeviation="2.5" result="effect1_foregroundBlur_419_12384"/>
</filter>
<linearGradient id="paint0_linear_419_12384" x1="19" y1="12.75" x2="19" y2="31.5" gradientUnits="userSpaceOnUse">
<stop stop-color="#ABE6FF"/>
<stop offset="1" stop-color="#1599D0"/>
</linearGradient>
<linearGradient id="paint1_linear_419_12384" x1="19" y1="12.75" x2="19" y2="31.5" gradientUnits="userSpaceOnUse">
<stop stop-color="#ABE6FF"/>
<stop offset="1" stop-color="#1599D0"/>
</linearGradient>
<linearGradient id="paint2_linear_419_12384" x1="30.25" y1="17.1248" x2="7.75" y2="17.1248" gradientUnits="userSpaceOnUse">
<stop stop-color="#A3D9FF" stop-opacity="0.611765"/>
<stop offset="1" stop-color="#C5EFFF" stop-opacity="0.6"/>
</linearGradient>
<linearGradient id="paint3_linear_419_12384" x1="19" y1="7.14983" x2="19" y2="19.0623" gradientUnits="userSpaceOnUse">
<stop stop-color="#BEE1FF"/>
<stop offset="1" stop-color="#BEE1FF" stop-opacity="0"/>
</linearGradient>
<clipPath id="clip0_419_12384">
<rect width="38" height="38" fill="white"/>
</clipPath>
</defs>
</svg>
