<svg width="24" height="24" viewBox="0 0 24 24" fill="none" xmlns="http://www.w3.org/2000/svg">
<path d="M6.68182 18.6522H9.13636V20.2174C9.13636 20.6496 8.77006 21 8.31818 21H7.5C7.04812 21 6.68182 20.6496 6.68182 20.2174V18.6522Z" fill="#121212"/>
<path d="M14.8636 18.6522H17.3182V20.2174C17.3182 20.6496 16.9519 21 16.5 21H15.6818C15.2299 21 14.8636 20.6496 14.8636 20.2174V18.6522Z" fill="#121212"/>
<path d="M3 6.3261C3 5.89387 3.36631 5.54349 3.81818 5.54349H4.63636V10.6304H3.81818C3.36631 10.6304 3 10.2801 3 9.84784V6.3261Z" fill="#121212"/>
<path d="M21 9.84784C21 10.2801 20.6337 10.6304 20.1818 10.6304H19.3636V5.54349H20.1818C20.6337 5.54349 21 5.89387 21 6.3261V9.84784Z" fill="#121212"/>
<path d="M19.3636 16.3043C19.3636 17.6011 18.2647 18.6522 16.9091 18.6522H7.09091C5.7353 18.6522 4.63636 17.6011 4.63636 16.3043V13.3696H19.3636V16.3043ZM7.70454 14.5435C6.91381 14.5436 6.27272 15.1567 6.27272 15.913C6.2729 16.6693 6.91392 17.2825 7.70454 17.2826C8.49521 17.2826 9.13619 16.6693 9.13636 15.913C9.13636 15.1567 8.49531 14.5435 7.70454 14.5435ZM16.2955 14.5435C15.5047 14.5436 14.8636 15.1567 14.8636 15.913C14.8638 16.6693 15.5048 17.2825 16.2955 17.2826C17.0861 17.2826 17.7271 16.6693 17.7273 15.913C17.7273 15.1567 17.0862 14.5435 16.2955 14.5435ZM16.9091 3C18.2646 3 19.3635 4.0513 19.3636 5.34783V6.71739H4.63636V5.34783C4.63653 4.0513 5.73541 3 7.09091 3H16.9091Z" fill="#121212"/>
<path d="M5.86363 6.52173H4.63636V13.5652H5.86363V6.52173Z" fill="#121212"/>
<path d="M19.3636 6.52173H18.1364V13.5652H19.3636V6.52173Z" fill="#121212"/>
</svg>
