<svg width="24" height="24" viewBox="0 0 24 24" fill="none" xmlns="http://www.w3.org/2000/svg">
<mask id="mask0_0_43" style="mask-type:luminance" maskUnits="userSpaceOnUse" x="2" y="2" width="20" height="20">
<path d="M22 2H2V22H22V2Z" fill="white"/>
</mask>
<g mask="url(#mask0_0_43)">
<path d="M14.843 13.3547C14.9295 13.2971 15.0291 13.262 15.1326 13.2526C15.2362 13.2432 15.3404 13.2598 15.4359 13.3008L19.1203 14.9516C19.2445 15.0046 19.3481 15.0965 19.4158 15.2133C19.4833 15.3303 19.5113 15.4659 19.4953 15.6C19.3739 16.5071 18.9273 17.3392 18.2383 17.9416C17.5494 18.544 16.6652 18.8757 15.75 18.875C12.9321 18.875 10.2296 17.7556 8.23699 15.763C6.24442 13.7704 5.125 11.0679 5.125 8.24998C5.1243 7.33483 5.456 6.45057 6.05841 5.76165C6.66082 5.07273 7.49293 4.62605 8.4 4.50467C8.53409 4.48874 8.66973 4.51667 8.78663 4.58427C8.90352 4.65187 8.99537 4.75551 9.04844 4.87967L10.6993 8.56717C10.7398 8.66188 10.7563 8.76515 10.7473 8.86778C10.7383 8.97042 10.7041 9.06924 10.6477 9.15545L8.97813 11.1406C8.91891 11.23 8.88388 11.3332 8.87649 11.4401C8.86909 11.5471 8.88958 11.6541 8.93594 11.7508C9.58203 13.0734 10.9493 14.4242 12.2758 15.0641C12.3729 15.1102 12.4805 15.1303 12.5878 15.1222C12.695 15.1141 12.7983 15.0782 12.8875 15.0179L14.843 13.3547Z" stroke="#121212" stroke-width="1.2" stroke-linecap="round" stroke-linejoin="round"/>
</g>
</svg>
