<svg width="24" height="24" viewBox="0 0 24 24" fill="none" xmlns="http://www.w3.org/2000/svg">
<mask id="mask0_0_49" style="mask-type:luminance" maskUnits="userSpaceOnUse" x="2" y="2" width="20" height="20">
<path d="M22 2H2V22H22V2Z" fill="white"/>
</mask>
<g mask="url(#mask0_0_49)">
<path d="M13.875 5.75C14.9262 6.02682 15.8851 6.57767 16.6537 7.34631C17.4223 8.11494 17.9732 9.07382 18.25 10.125" stroke="#1599D0" stroke-width="1.2" stroke-linecap="round" stroke-linejoin="round"/>
<path d="M13.25 8.25C14.5407 8.59532 15.4047 9.45937 15.75 10.75" stroke="#1599D0" stroke-width="1.2" stroke-linecap="round" stroke-linejoin="round"/>
<path d="M14.718 13.8544C14.8045 13.7968 14.9041 13.7617 15.0076 13.7523C15.1112 13.7429 15.2154 13.7594 15.3109 13.8004L18.9953 15.4513C19.1195 15.5043 19.2231 15.5962 19.2908 15.713C19.3583 15.8299 19.3863 15.9656 19.3703 16.0997C19.2489 17.0068 18.8023 17.8389 18.1133 18.4413C17.4244 19.0437 16.5402 19.3754 15.625 19.3747C12.8071 19.3747 10.1046 18.2553 8.11199 16.2627C6.11942 14.2701 5 11.5676 5 8.74968C4.9993 7.83452 5.331 6.95026 5.93341 6.26135C6.53582 5.57243 7.36793 5.12575 8.275 5.00436C8.40909 4.98844 8.54473 5.01636 8.66163 5.08396C8.77852 5.15156 8.87037 5.2552 8.92344 5.37936L10.5743 9.06686C10.6148 9.16158 10.6313 9.26485 10.6223 9.36748C10.6133 9.47011 10.5791 9.56894 10.5227 9.65515L8.85313 11.6403C8.79391 11.7297 8.75888 11.8329 8.75149 11.9398C8.74409 12.0468 8.76458 12.1538 8.81094 12.2504C9.45703 13.5731 10.8243 14.9239 12.1508 15.5638C12.2479 15.6099 12.3555 15.6299 12.4628 15.6219C12.57 15.6138 12.6733 15.5779 12.7625 15.5176L14.718 13.8544Z" stroke="#121212" stroke-width="1.2" stroke-linecap="round" stroke-linejoin="round"/>
</g>
</svg>
