<svg width="24" height="24" viewBox="0 0 24 24" fill="none" xmlns="http://www.w3.org/2000/svg">
<mask id="mask0_0_80" style="mask-type:luminance" maskUnits="userSpaceOnUse" x="2" y="2" width="20" height="20">
<path d="M22 2H2V22H22V2Z" fill="white"/>
</mask>
<g mask="url(#mask0_0_80)">
<path d="M14.5 8.24999L7.99137 14.8664C7.76267 15.102 7.63584 15.4181 7.63831 15.7465C7.64078 16.0748 7.77235 16.389 8.00459 16.6212C8.23682 16.8533 8.55107 16.9847 8.87942 16.987C9.20777 16.9893 9.52384 16.8624 9.75935 16.6336L17.5179 8.76795C17.9868 8.29906 18.2502 7.6631 18.2502 6.99999C18.2502 6.33687 17.9868 5.70091 17.5179 5.23201C17.0491 4.76312 16.4131 4.49969 15.75 4.49969C15.0868 4.49969 14.4509 4.76312 13.982 5.23201L6.22341 13.0984C5.52961 13.8036 5.14257 14.7544 5.1466 15.7437C5.15062 16.7329 5.54539 17.6805 6.24492 18.38C6.94443 19.0796 7.89203 19.4743 8.8813 19.4783C9.87056 19.4824 10.8213 19.0953 11.5265 18.4016L17.9375 12" stroke="#121212" stroke-width="1.2" stroke-linecap="round" stroke-linejoin="round"/>
</g>
</svg>
