<svg width="24" height="24" viewBox="0 0 24 24" fill="none" xmlns="http://www.w3.org/2000/svg">
<path d="M10.2003 11.9999H13.8003" stroke="#121212" stroke-width="1.2" stroke-linecap="round" stroke-linejoin="round"/>
<path d="M10.2003 8.44418H13.8003" stroke="#121212" stroke-width="1.2" stroke-linecap="round" stroke-linejoin="round"/>
<path d="M13.8003 20V17.3334C13.8003 16.8618 13.6107 16.4096 13.2732 16.0763C12.9355 15.7429 12.4777 15.5556 12.0004 15.5556C11.523 15.5556 11.0651 15.7429 10.7275 16.0763C10.39 16.4096 10.2003 16.8618 10.2003 17.3334V20" stroke="#121212" stroke-width="1.2" stroke-linecap="round" stroke-linejoin="round"/>
<path d="M6.6 10.2223H4.8C4.32261 10.2223 3.86478 10.4096 3.52721 10.743C3.18965 11.0764 3 11.5286 3 12.0001V18.2222C3 18.6937 3.18965 19.1458 3.52721 19.4793C3.86478 19.8127 4.32261 20 4.8 20H19.2C19.6773 20 20.1352 19.8127 20.4727 19.4793C20.8104 19.1458 21 18.6937 21 18.2222V9.33344C21 8.86196 20.8104 8.40977 20.4727 8.07638C20.1352 7.74299 19.6773 7.55569 19.2 7.55569H17.3999" stroke="#121212" stroke-width="1.2" stroke-linecap="round" stroke-linejoin="round"/>
<path d="M6.60017 19.9998V5.77776C6.60017 5.30626 6.78981 4.85409 7.12738 4.5207C7.46495 4.18729 7.92278 4 8.40017 4H15.6001C16.0776 4 16.5354 4.18729 16.8729 4.5207C17.2105 4.85409 17.4001 5.30626 17.4001 5.77776V19.9998" stroke="#121212" stroke-width="1.2" stroke-linecap="round" stroke-linejoin="round"/>
</svg>
