<svg width="38" height="38" viewBox="0 0 38 38" fill="none" xmlns="http://www.w3.org/2000/svg">
<g clip-path="url(#clip0_419_12368)">
<mask id="mask0_419_12368" style="mask-type:luminance" maskUnits="userSpaceOnUse" x="4" y="4" width="38" height="38">
<path d="M42 4H4V42H42V4Z" fill="white"/>
<path d="M24.7495 7.75C27.5497 7.75 28.951 7.74946 30.0205 8.29444C30.9611 8.77377 31.7263 9.53886 32.2056 10.4795C32.7505 11.549 32.75 12.9502 32.75 15.7505V19.7495C32.75 22.5497 32.7505 23.951 32.2056 25.0205C31.7263 25.9611 30.9611 26.7263 30.0205 27.2056C28.951 27.7505 27.5497 27.75 24.7495 27.75H13.2505C10.4502 27.75 9.04905 27.7505 7.97949 27.2056C7.03886 26.7263 6.27377 25.9611 5.79444 25.0205C5.24947 23.951 5.25 22.5497 5.25 19.7495V15.7505C5.25 12.9502 5.24947 11.549 5.79444 10.4795C6.27377 9.53886 7.03886 8.77377 7.97949 8.29444C9.04905 7.74946 10.4502 7.75 13.2505 7.75H17.7525C17.5557 8.01135 17.4375 8.3352 17.4375 8.6875C17.4375 9.55045 18.137 10.25 19 10.25C19.863 10.25 20.5625 9.55045 20.5625 8.6875C20.5625 8.3352 20.4443 8.01135 20.2475 7.75H24.7495Z" fill="black"/>
</mask>
<g mask="url(#mask0_419_12368)">
<path d="M17.7496 23.1663C18.3745 22.3331 19.6245 22.3334 20.2496 23.1663L24.6246 29C25.3971 30.03 24.6623 31.5 23.3746 31.5H14.6246C13.3374 31.4998 12.6024 30.03 13.3746 29L17.7496 23.1663ZM20.9759 7.75C21.1113 8.03434 21.1871 8.35239 21.1871 8.6875C21.1871 9.89562 20.2078 10.875 18.9996 10.875C17.7916 10.8748 16.8121 9.89549 16.8121 8.6875C16.8121 8.35247 16.888 8.03427 17.0233 7.75H20.9759Z" fill="url(#paint0_linear_419_12368)"/>
</g>
<mask id="mask1_419_12368" style="mask-type:luminance" maskUnits="userSpaceOnUse" x="5" y="7" width="28" height="21">
<path d="M24.7495 7.75C27.5497 7.75 28.951 7.74946 30.0205 8.29444C30.9611 8.77377 31.7263 9.53886 32.2056 10.4795C32.7505 11.549 32.75 12.9502 32.75 15.7505V19.7495C32.75 22.5497 32.7505 23.951 32.2056 25.0205C31.7263 25.9611 30.9611 26.7263 30.0205 27.2056C28.951 27.7505 27.5497 27.75 24.7495 27.75H13.2505C10.4502 27.75 9.04905 27.7505 7.97949 27.2056C7.03886 26.7263 6.27377 25.9611 5.79444 25.0205C5.24947 23.951 5.25 22.5497 5.25 19.7495V15.7505C5.25 12.9502 5.24947 11.549 5.79444 10.4795C6.27377 9.53886 7.03886 8.77377 7.97949 8.29444C9.04905 7.74946 10.4502 7.75 13.2505 7.75H17.7525C17.5557 8.01135 17.4375 8.3352 17.4375 8.6875C17.4375 9.55045 18.137 10.25 19 10.25C19.863 10.25 20.5625 9.55045 20.5625 8.6875C20.5625 8.3352 20.4443 8.01135 20.2475 7.75H24.7495Z" fill="white"/>
</mask>
<g mask="url(#mask1_419_12368)">
<g filter="url(#filter0_f_419_12368)">
<path d="M17.7496 23.1663C18.3745 22.3331 19.6245 22.3334 20.2496 23.1663L24.6246 29C25.3971 30.03 24.6623 31.5 23.3746 31.5H14.6246C13.3374 31.4998 12.6024 30.03 13.3746 29L17.7496 23.1663ZM20.9759 7.75C21.1113 8.03434 21.1871 8.35239 21.1871 8.6875C21.1871 9.89562 20.2078 10.875 18.9996 10.875C17.7916 10.8748 16.8121 9.89549 16.8121 8.6875C16.8121 8.35247 16.888 8.03427 17.0233 7.75H20.9759Z" fill="url(#paint1_linear_419_12368)"/>
</g>
</g>
<path d="M24.7495 7.75C27.5497 7.75 28.951 7.74946 30.0205 8.29444C30.9611 8.77377 31.7263 9.53886 32.2056 10.4795C32.7505 11.549 32.75 12.9502 32.75 15.7505V19.7495C32.75 22.5497 32.7505 23.951 32.2056 25.0205C31.7263 25.9611 30.9611 26.7263 30.0205 27.2056C28.951 27.7505 27.5497 27.75 24.7495 27.75H13.2505C10.4502 27.75 9.04905 27.7505 7.97949 27.2056C7.03886 26.7263 6.27377 25.9611 5.79444 25.0205C5.24947 23.951 5.25 22.5497 5.25 19.7495V15.7505C5.25 12.9502 5.24947 11.549 5.79444 10.4795C6.27377 9.53886 7.03886 8.77377 7.97949 8.29444C9.04905 7.74946 10.4502 7.75 13.2505 7.75H17.7525C17.5557 8.01135 17.4375 8.3352 17.4375 8.6875C17.4375 9.55045 18.137 10.25 19 10.25C19.863 10.25 20.5625 9.55045 20.5625 8.6875C20.5625 8.3352 20.4443 8.01135 20.2475 7.75H24.7495Z" fill="url(#paint2_linear_419_12368)"/>
<path d="M24.7495 26.8125V27.75H13.2505V26.8125H24.7495ZM31.8125 19.7495V15.7505C31.8125 14.335 31.8121 13.3292 31.7477 12.5425C31.6844 11.7667 31.5632 11.2861 31.3694 10.9055C30.9799 10.1413 30.3587 9.52006 29.5945 9.13061C29.2139 8.9367 28.7332 8.81559 27.9575 8.7522C27.1709 8.68794 26.165 8.6875 24.7495 8.6875H13.2505C11.835 8.6875 10.8292 8.68794 10.0425 8.7522C9.2667 8.81559 8.78611 8.9367 8.40551 9.13061C7.64131 9.52006 7.02006 10.1413 6.63061 10.9055C6.4367 11.2861 6.31559 11.7667 6.2522 12.5425C6.18794 13.3292 6.1875 14.335 6.1875 15.7505V19.7495C6.1875 21.165 6.18794 22.1709 6.2522 22.9575C6.31559 23.7333 6.4367 24.2139 6.63061 24.5945C7.02006 25.3587 7.64131 25.9799 8.40551 26.3694C8.78611 26.5632 9.2667 26.6844 10.0425 26.7477C10.8292 26.8121 11.835 26.8125 13.2505 26.8125V27.75L11.395 27.7415C9.90539 27.718 8.9511 27.6301 8.18458 27.3008L7.97949 27.2056C7.1564 26.7861 6.46766 26.1479 5.9873 25.3647L5.79444 25.0205C5.24947 23.951 5.25 22.5497 5.25 19.7495V15.7505C5.25 12.9502 5.24947 11.549 5.79444 10.4795C6.27377 9.53886 7.03886 8.77377 7.97949 8.29444C8.78156 7.88576 9.77009 7.7841 11.395 7.75855L13.2505 7.75H24.7495C27.5497 7.75 28.951 7.74946 30.0205 8.29444C30.9611 8.77377 31.7263 9.53886 32.2056 10.4795C32.7505 11.549 32.75 12.9502 32.75 15.7505V19.7495C32.75 22.5497 32.7505 23.951 32.2056 25.0205L32.0128 25.3647C31.5324 26.1479 30.8436 26.7861 30.0205 27.2056L29.8154 27.3008C28.77 27.7499 27.3749 27.75 24.7495 27.75V26.8125C26.165 26.8125 27.1707 26.8121 27.9575 26.7477C28.7332 26.6844 29.2139 26.5632 29.5945 26.3694C30.3587 25.9799 30.9799 25.3587 31.3694 24.5945C31.5632 24.2139 31.6844 23.7333 31.7477 22.9575C31.8121 22.1709 31.8125 21.165 31.8125 19.7495Z" fill="url(#paint3_linear_419_12368)"/>
</g>
<defs>
<filter id="filter0_f_419_12368" x="8.05948" y="2.75" width="21.8805" height="33.75" filterUnits="userSpaceOnUse" color-interpolation-filters="sRGB">
<feFlood flood-opacity="0" result="BackgroundImageFix"/>
<feBlend mode="normal" in="SourceGraphic" in2="BackgroundImageFix" result="shape"/>
<feGaussianBlur stdDeviation="2.5" result="effect1_foregroundBlur_419_12368"/>
</filter>
<linearGradient id="paint0_linear_419_12368" x1="19" y1="7.75" x2="19" y2="31.5" gradientUnits="userSpaceOnUse">
<stop stop-color="#ABE6FF"/>
<stop offset="1" stop-color="#1599D0"/>
</linearGradient>
<linearGradient id="paint1_linear_419_12368" x1="19" y1="7.75" x2="19" y2="31.5" gradientUnits="userSpaceOnUse">
<stop stop-color="#ABE6FF"/>
<stop offset="1" stop-color="#1599D0"/>
</linearGradient>
<linearGradient id="paint2_linear_419_12368" x1="19" y1="7.75" x2="19" y2="27.75" gradientUnits="userSpaceOnUse">
<stop stop-color="#A3D9FF" stop-opacity="0.611765"/>
<stop offset="1" stop-color="#C5EFFF" stop-opacity="0.6"/>
</linearGradient>
<linearGradient id="paint3_linear_419_12368" x1="19" y1="7.75" x2="19" y2="19.3325" gradientUnits="userSpaceOnUse">
<stop stop-color="#BEE1FF"/>
<stop offset="1" stop-color="#BEE1FF" stop-opacity="0"/>
</linearGradient>
<clipPath id="clip0_419_12368">
<rect width="38" height="38" fill="white"/>
</clipPath>
</defs>
</svg>
