<svg width="38" height="38" viewBox="0 0 38 38" fill="none" xmlns="http://www.w3.org/2000/svg">
<g clip-path="url(#clip0_419_12400)">
<mask id="mask0_419_12400" style="mask-type:luminance" maskUnits="userSpaceOnUse" x="4" y="4" width="38" height="38">
<path d="M42 4H4V42H42V4Z" fill="white"/>
<path fill-rule="evenodd" clip-rule="evenodd" d="M20.6785 5.25C21.4995 5.25 22.0271 5.77716 22.9649 6.71485L28.7851 12.5352C29.7229 13.4728 30.25 14.0005 30.25 14.8215V27.75C30.25 30.5114 28.0114 32.75 25.25 32.75H12.75C9.98857 32.75 7.75 30.5114 7.75 27.75V10.25C7.75 7.48857 9.98857 5.25 12.75 5.25H20.6785ZM14 24C13.3096 24 12.75 24.5596 12.75 25.25C12.75 25.9404 13.3096 26.5 14 26.5H24L24.1281 26.4939C24.7584 26.4298 25.25 25.8971 25.25 25.25C25.25 24.5596 24.6904 24 24 24H14ZM14 19C13.3096 19 12.75 19.5596 12.75 20.25C12.75 20.9404 13.3096 21.5 14 21.5H15.25L15.3782 21.4939C16.0083 21.4298 16.5 20.8971 16.5 20.25C16.5 19.6029 16.0083 19.0702 15.3782 19.0061L15.25 19H14ZM20.25 19C19.5596 19 19 19.5596 19 20.25C19 20.9404 19.5596 21.5 20.25 21.5H24L24.1281 21.4939C24.7584 21.4298 25.25 20.8971 25.25 20.25C25.25 19.6029 24.7584 19.0702 24.1281 19.0061L24 19H20.25Z" fill="black"/>
</mask>
<g mask="url(#mask0_419_12400)">
<path d="M29 26.3291C29.345 26.3291 29.6248 26.6091 29.625 26.9541C29.625 29.7964 27.3684 32.125 24.5554 32.125H13.4446C10.6316 32.125 8.375 29.7964 8.375 26.9541C8.37525 26.6091 8.65497 26.3291 9 26.3291C9.34503 26.3291 9.62475 26.6091 9.625 26.9541C9.625 29.1326 11.3483 30.875 13.4446 30.875H24.5554C26.6516 30.875 28.375 29.1326 28.375 26.9541C28.3752 26.6091 28.655 26.3291 29 26.3291ZM15.25 17.75C16.6307 17.75 17.75 18.8693 17.75 20.25C17.75 21.6307 16.6307 22.75 15.25 22.75H20.25C18.8693 22.75 17.75 21.6307 17.75 20.25C17.75 18.8693 18.8693 17.75 20.25 17.75H24C25.3808 17.75 26.5 18.8693 26.5 20.25C26.5 21.6307 25.3808 22.75 24 22.75C25.3808 22.75 26.5 23.8693 26.5 25.25C26.5 26.6307 25.3808 27.75 24 27.75H14C12.6193 27.75 11.5 26.6307 11.5 25.25C11.5 23.8693 12.6193 22.75 14 22.75C12.6193 22.75 11.5 21.6307 11.5 20.25C11.5 18.8693 12.6193 17.75 14 17.75H15.25Z" fill="url(#paint0_linear_419_12400)"/>
</g>
<mask id="mask1_419_12400" style="mask-type:luminance" maskUnits="userSpaceOnUse" x="7" y="5" width="24" height="28">
<path fill-rule="evenodd" clip-rule="evenodd" d="M20.6785 5.25C21.4995 5.25 22.0271 5.77716 22.9649 6.71485L28.7851 12.5352C29.7229 13.4728 30.25 14.0005 30.25 14.8215V27.75C30.25 30.5114 28.0114 32.75 25.25 32.75H12.75C9.98857 32.75 7.75 30.5114 7.75 27.75V10.25C7.75 7.48857 9.98857 5.25 12.75 5.25H20.6785ZM14 24C13.3096 24 12.75 24.5596 12.75 25.25C12.75 25.9404 13.3096 26.5 14 26.5H24L24.1281 26.4939C24.7584 26.4298 25.25 25.8971 25.25 25.25C25.25 24.5596 24.6904 24 24 24H14ZM14 19C13.3096 19 12.75 19.5596 12.75 20.25C12.75 20.9404 13.3096 21.5 14 21.5H15.25L15.3782 21.4939C16.0083 21.4298 16.5 20.8971 16.5 20.25C16.5 19.6029 16.0083 19.0702 15.3782 19.0061L15.25 19H14ZM20.25 19C19.5596 19 19 19.5596 19 20.25C19 20.9404 19.5596 21.5 20.25 21.5H24L24.1281 21.4939C24.7584 21.4298 25.25 20.8971 25.25 20.25C25.25 19.6029 24.7584 19.0702 24.1281 19.0061L24 19H20.25Z" fill="white"/>
</mask>
<g mask="url(#mask1_419_12400)">
<g filter="url(#filter0_f_419_12400)">
<path d="M29 26.3291C29.345 26.3291 29.6248 26.6091 29.625 26.9541C29.625 29.7964 27.3684 32.125 24.5554 32.125H13.4446C10.6316 32.125 8.375 29.7964 8.375 26.9541C8.37525 26.6091 8.65497 26.3291 9 26.3291C9.34503 26.3291 9.62475 26.6091 9.625 26.9541C9.625 29.1326 11.3483 30.875 13.4446 30.875H24.5554C26.6516 30.875 28.375 29.1326 28.375 26.9541C28.3752 26.6091 28.655 26.3291 29 26.3291ZM15.25 17.75C16.6307 17.75 17.75 18.8693 17.75 20.25C17.75 21.6307 16.6307 22.75 15.25 22.75H20.25C18.8693 22.75 17.75 21.6307 17.75 20.25C17.75 18.8693 18.8693 17.75 20.25 17.75H24C25.3808 17.75 26.5 18.8693 26.5 20.25C26.5 21.6307 25.3808 22.75 24 22.75C25.3808 22.75 26.5 23.8693 26.5 25.25C26.5 26.6307 25.3808 27.75 24 27.75H14C12.6193 27.75 11.5 26.6307 11.5 25.25C11.5 23.8693 12.6193 22.75 14 22.75C12.6193 22.75 11.5 21.6307 11.5 20.25C11.5 18.8693 12.6193 17.75 14 17.75H15.25Z" fill="url(#paint1_linear_419_12400)"/>
</g>
</g>
<path fill-rule="evenodd" clip-rule="evenodd" d="M20.6785 5.25C21.4995 5.25 22.0271 5.77716 22.9649 6.71485L28.7851 12.5352C29.7229 13.4728 30.25 14.0005 30.25 14.8215V27.75C30.25 30.5114 28.0114 32.75 25.25 32.75H12.75C9.98857 32.75 7.75 30.5114 7.75 27.75V10.25C7.75 7.48857 9.98857 5.25 12.75 5.25H20.6785ZM14 24C13.3096 24 12.75 24.5596 12.75 25.25C12.75 25.9404 13.3096 26.5 14 26.5H24L24.1281 26.4939C24.7584 26.4298 25.25 25.8971 25.25 25.25C25.25 24.5596 24.6904 24 24 24H14ZM14 19C13.3096 19 12.75 19.5596 12.75 20.25C12.75 20.9404 13.3096 21.5 14 21.5H15.25L15.3782 21.4939C16.0083 21.4298 16.5 20.8971 16.5 20.25C16.5 19.6029 16.0083 19.0702 15.3782 19.0061L15.25 19H14ZM20.25 19C19.5596 19 19 19.5596 19 20.25C19 20.9404 19.5596 21.5 20.25 21.5H24L24.1281 21.4939C24.7584 21.4298 25.25 20.8971 25.25 20.25C25.25 19.6029 24.7584 19.0702 24.1281 19.0061L24 19H20.25Z" fill="url(#paint2_linear_419_12400)"/>
<path d="M7.75 27.75V10.25C7.75 7.48857 9.98857 5.25 12.75 5.25H20.6785C21.4995 5.25 22.0271 5.77716 22.9649 6.71485L28.7851 12.5352C29.7229 13.4728 30.25 14.0005 30.25 14.8215V27.75L30.2439 28.0076C30.1141 30.564 28.064 32.6141 25.5076 32.7439L25.25 32.75V31.8125C27.4236 31.8125 29.199 30.1054 29.3076 27.9587L29.3125 27.75V14.8215C29.3125 14.648 29.2682 14.4959 29.1038 14.2637C28.9111 13.9917 28.6116 13.6873 28.1222 13.198L22.302 7.37769C21.8127 6.88839 21.5082 6.58888 21.2364 6.39624C21.0041 6.23181 20.852 6.1875 20.6785 6.1875H12.75C10.5063 6.1875 8.6875 8.00635 8.6875 10.25V27.75C8.6875 29.9936 10.5063 31.8125 12.75 31.8125V32.75C9.98857 32.75 7.75 30.5114 7.75 27.75ZM25.25 31.8125V32.75H12.75V31.8125H25.25Z" fill="url(#paint3_linear_419_12400)"/>
<path d="M20.6785 5.25C21.4995 5.25 22.0271 5.77716 22.9649 6.71485L28.7851 12.5352C29.7229 13.4728 30.25 14.0005 30.25 14.8215V15.25H22.75C21.3693 15.25 20.25 14.1307 20.25 12.75V5.25H20.6785Z" fill="url(#paint4_linear_419_12400)"/>
</g>
<defs>
<filter id="filter0_f_419_12400" x="3.375" y="12.75" width="31.25" height="24.375" filterUnits="userSpaceOnUse" color-interpolation-filters="sRGB">
<feFlood flood-opacity="0" result="BackgroundImageFix"/>
<feBlend mode="normal" in="SourceGraphic" in2="BackgroundImageFix" result="shape"/>
<feGaussianBlur stdDeviation="2.5" result="effect1_foregroundBlur_419_12400"/>
</filter>
<linearGradient id="paint0_linear_419_12400" x1="19" y1="17.75" x2="19" y2="32.125" gradientUnits="userSpaceOnUse">
<stop stop-color="#ABE6FF"/>
<stop offset="1" stop-color="#1599D0"/>
</linearGradient>
<linearGradient id="paint1_linear_419_12400" x1="19" y1="17.75" x2="19" y2="32.125" gradientUnits="userSpaceOnUse">
<stop stop-color="#ABE6FF"/>
<stop offset="1" stop-color="#1599D0"/>
</linearGradient>
<linearGradient id="paint2_linear_419_12400" x1="19" y1="5.25" x2="19" y2="32.75" gradientUnits="userSpaceOnUse">
<stop stop-color="#A3D9FF" stop-opacity="0.611765"/>
<stop offset="1" stop-color="#C5EFFF" stop-opacity="0.6"/>
</linearGradient>
<linearGradient id="paint3_linear_419_12400" x1="19" y1="5.25" x2="19" y2="21.175" gradientUnits="userSpaceOnUse">
<stop stop-color="#BEE1FF"/>
<stop offset="1" stop-color="#BEE1FF" stop-opacity="0"/>
</linearGradient>
<linearGradient id="paint4_linear_419_12400" x1="25.25" y1="5.25" x2="25.25" y2="15.25" gradientUnits="userSpaceOnUse">
<stop stop-color="#ABE6FF"/>
<stop offset="1" stop-color="#1599D0"/>
</linearGradient>
<clipPath id="clip0_419_12400">
<rect width="38" height="38" fill="white"/>
</clipPath>
</defs>
</svg>
