<svg width="24" height="24" viewBox="0 0 24 24" fill="none" xmlns="http://www.w3.org/2000/svg">
<g clip-path="url(#clip0_0_198)">
<path d="M9.5 18.875H5.75C5.58424 18.875 5.42527 18.8091 5.30806 18.6919C5.19085 18.5747 5.125 18.4158 5.125 18.25V14.7586C5.12508 14.593 5.19082 14.4343 5.30781 14.3172L14.9422 4.68281C15.0594 4.56568 15.2183 4.49989 15.384 4.49989C15.5497 4.49989 15.7086 4.56568 15.8258 4.68281L19.3172 8.17187C19.4343 8.28907 19.5001 8.44798 19.5001 8.61367C19.5001 8.77936 19.4343 8.93826 19.3172 9.05546L9.5 18.875Z" stroke="black" stroke-width="1.2" stroke-linecap="round" stroke-linejoin="round"/>
<path d="M18.875 18.875H9.5" stroke="black" stroke-width="1.2" stroke-linecap="round" stroke-linejoin="round"/>
<path d="M12.625 7L17 11.375" stroke="black" stroke-width="1.2" stroke-linecap="round" stroke-linejoin="round"/>
</g>
<defs>
<clipPath id="clip0_0_198">
<rect width="20" height="20" fill="white" transform="translate(2 2)"/>
</clipPath>
</defs>
</svg>
