<svg width="24" height="24" viewBox="0 0 24 24" fill="none" xmlns="http://www.w3.org/2000/svg">
<mask id="mask0_0_208" style="mask-type:luminance" maskUnits="userSpaceOnUse" x="2" y="2" width="20" height="20">
<path d="M22 2H2V22H22V2Z" fill="white"/>
</mask>
<g mask="url(#mask0_0_208)">
<path d="M12 6.375C5.75 6.375 3.25 12 3.25 12C3.25 12 5.75 17.625 12 17.625C18.25 17.625 20.75 12 20.75 12C20.75 12 18.25 6.375 12 6.375Z" stroke="black" stroke-width="1.2" stroke-linecap="round" stroke-linejoin="round"/>
<path d="M12 15.125C13.7259 15.125 15.125 13.7259 15.125 12C15.125 10.2741 13.7259 8.875 12 8.875C10.2741 8.875 8.875 10.2741 8.875 12C8.875 13.7259 10.2741 15.125 12 15.125Z" stroke="black" stroke-width="1.2" stroke-linecap="round" stroke-linejoin="round"/>
</g>
</svg>
