<svg width="24" height="24" viewBox="0 0 24 24" fill="none" xmlns="http://www.w3.org/2000/svg">
<path d="M6.56 8.4V6.6C6.56 6.44087 6.62743 6.28826 6.74745 6.17574C6.86747 6.06322 7.03026 6 7.2 6H10.8264C10.9648 6 11.0996 6.04211 11.2104 6.12L13.6 7.8H19.36C19.5298 7.8 19.6925 7.86322 19.8125 7.97574C19.9326 8.08826 20 8.24087 20 8.4V15.0667C20 15.2082 19.9401 15.3438 19.8334 15.4438C19.7267 15.5438 19.5821 15.6 19.4312 15.6H17.44" stroke="#1599D0" stroke-width="1.2" stroke-linecap="round" stroke-linejoin="round"/>
<path d="M17.44 10.8V17.4667C17.44 17.5368 17.4253 17.6061 17.3967 17.6708C17.3681 17.7355 17.3262 17.7943 17.2734 17.8438C17.2206 17.8933 17.1579 17.9326 17.0889 17.9594C17.0199 17.9862 16.9459 18 16.8712 18H4.64C4.47026 18 4.30748 17.9368 4.18745 17.8242C4.06743 17.7117 4 17.5592 4 17.4V8.99999C4 8.84086 4.06743 8.68825 4.18745 8.57573C4.30748 8.46321 4.47026 8.39999 4.64 8.39999H8.2664C8.40488 8.39999 8.53962 8.4421 8.6504 8.51999L11.04 10.2H16.8C16.9698 10.2 17.1325 10.2632 17.2525 10.3758C17.3726 10.4883 17.44 10.6408 17.44 10.8Z" stroke="#121212" stroke-width="1.2" stroke-linecap="round" stroke-linejoin="round"/>
</svg>
