<svg xmlns="http://www.w3.org/2000/svg" width="24" height="24" viewBox="0 0 24 24" fill="#000">
<path d="M16.043 3.59961C19.1411 3.59978 21.8652 5.91994 21.9004 9.26074V9.28125L21.8994 9.30273C21.8901 9.56149 21.8686 9.98046 21.832 10.2393L21.833 10.2402C21.5758 12.2192 20.379 14.0406 18.8701 15.6299C17.3492 17.2319 15.425 18.6878 13.5498 19.9316C13.0873 20.2386 12.5505 20.4004 12 20.4004C11.4617 20.4004 10.9147 20.2399 10.4502 19.9316H10.4492C8.57868 18.6876 6.6572 17.2296 5.13672 15.627C3.62838 14.037 2.42975 12.2155 2.16699 10.2422L2.16504 10.2275L2.16309 10.2119C2.14216 9.99926 2.11128 9.59873 2.10059 9.30273L2.09961 9.27832L2.10059 9.25391C2.15926 5.91943 4.87707 3.59985 7.97656 3.59961C8.95581 3.59961 9.89725 4.00476 10.6826 4.52734C11.1593 4.84454 11.6046 5.22319 12 5.62695C12.3986 5.22171 12.8495 4.84292 13.3301 4.52539C14.1196 4.00375 15.0649 3.59961 16.043 3.59961ZM16.043 5.40039C15.5458 5.40039 14.9465 5.61489 14.3223 6.02734C13.7074 6.43364 13.1383 6.98631 12.7178 7.54297C12.5477 7.76784 12.282 7.90039 12 7.90039C11.718 7.90039 11.4523 7.76784 11.2822 7.54297C10.86 6.98413 10.2952 6.43104 9.68555 6.02539C9.06684 5.61372 8.47271 5.40039 7.97656 5.40039C5.7738 5.40063 3.95406 7.01108 3.90039 9.25879C3.90987 9.50001 3.93527 9.83514 3.95312 10.0205C4.14724 11.4403 5.04688 12.9167 6.44238 14.3877C7.83091 15.8513 9.62833 17.2236 11.4463 18.4326H11.4453C11.6103 18.5421 11.8105 18.5996 12 18.5996C12.1969 18.5996 12.3878 18.5434 12.5547 18.4326V18.4316C14.3778 17.2224 16.1764 15.8527 17.5645 14.3906C18.9644 12.9161 19.8633 11.4356 20.0488 10.0078L20.0508 9.99219C20.0711 9.85443 20.0883 9.54015 20.0986 9.26562C20.0676 7.0172 18.2515 5.40056 16.043 5.40039Z" fill="#121212"/>
</svg>