<svg width="24" height="24" viewBox="0 0 24 24" fill="none" xmlns="http://www.w3.org/2000/svg">
<path d="M12 3.875C10.393 3.875 8.82214 4.35152 7.48599 5.24431C6.14984 6.1371 5.10844 7.40605 4.49348 8.8907C3.87852 10.3753 3.71761 12.009 4.03112 13.5851C4.34462 15.1612 5.11846 16.6089 6.25476 17.7452C7.39106 18.8815 8.8388 19.6554 10.4149 19.9689C11.991 20.2824 13.6247 20.1215 15.1093 19.5065C16.594 18.8916 17.8629 17.8502 18.7557 16.514C19.6485 15.1779 20.125 13.607 20.125 12C20.1227 9.84581 19.266 7.78051 17.7427 6.25727C16.2195 4.73403 14.1542 3.87727 12 3.875ZM11.6875 7.625C11.8729 7.625 12.0542 7.67998 12.2083 7.783C12.3625 7.88601 12.4827 8.03243 12.5536 8.20373C12.6246 8.37504 12.6432 8.56354 12.607 8.7454C12.5708 8.92725 12.4815 9.0943 12.3504 9.22541C12.2193 9.35652 12.0523 9.44581 11.8704 9.48199C11.6885 9.51816 11.5 9.49959 11.3287 9.42864C11.1574 9.35768 11.011 9.23752 10.908 9.08335C10.805 8.92918 10.75 8.74792 10.75 8.5625C10.75 8.31386 10.8488 8.0754 11.0246 7.89959C11.2004 7.72377 11.4389 7.625 11.6875 7.625ZM12.625 16.375C12.2935 16.375 11.9755 16.2433 11.7411 16.0089C11.5067 15.7745 11.375 15.4565 11.375 15.125V12C11.2092 12 11.0503 11.9342 10.9331 11.8169C10.8158 11.6997 10.75 11.5408 10.75 11.375C10.75 11.2092 10.8158 11.0503 10.9331 10.9331C11.0503 10.8158 11.2092 10.75 11.375 10.75C11.7065 10.75 12.0245 10.8817 12.2589 11.1161C12.4933 11.3505 12.625 11.6685 12.625 12V15.125C12.7908 15.125 12.9497 15.1908 13.0669 15.3081C13.1842 15.4253 13.25 15.5842 13.25 15.75C13.25 15.9158 13.1842 16.0747 13.0669 16.1919C12.9497 16.3092 12.7908 16.375 12.625 16.375Z" fill="black"/>
</svg>
