<svg width="24" height="24" viewBox="0 0 24 24" fill="none" xmlns="http://www.w3.org/2000/svg">
<mask id="mask0_0_261" style="mask-type:luminance" maskUnits="userSpaceOnUse" x="2" y="2" width="20" height="20">
<path d="M22 2H2V22H22V2Z" fill="white"/>
</mask>
<g mask="url(#mask0_0_261)">
<path d="M13.0453 7.05315L13.9046 6.19377C14.2428 5.85546 14.6444 5.58708 15.0863 5.40398C15.5283 5.22087 16.002 5.12663 16.4804 5.12663C16.9587 5.12663 17.4325 5.22087 17.8744 5.40398C18.3164 5.58708 18.7179 5.85546 19.0562 6.19377C19.3945 6.53199 19.6628 6.93355 19.846 7.37551C20.0291 7.81747 20.1233 8.29117 20.1233 8.76956C20.1233 9.24794 20.0291 9.72164 19.846 10.1636C19.6628 10.6056 19.3945 11.0071 19.0562 11.3453L17.1515 13.25L16.3437 14.0578C16.0051 14.3965 15.603 14.6651 15.1605 14.8482C14.7179 15.0313 14.2437 15.1254 13.7648 15.125C13.2858 15.1247 12.8117 15.0299 12.3694 14.8461C11.9272 14.6623 11.5255 14.3931 11.1874 14.0539C10.8374 13.7041 10.5627 13.2864 10.38 12.8266C10.1973 12.3667 10.1105 11.8743 10.1249 11.3797" stroke="#1599D0" stroke-width="1.2" stroke-linecap="round" stroke-linejoin="round"/>
<path d="M10.9547 16.9468L10.0954 17.8062C9.75678 18.1448 9.3547 18.4134 8.91219 18.5966C8.46966 18.7797 7.99538 18.8738 7.51646 18.8734C7.03754 18.8731 6.5634 18.7783 6.12115 18.5945C5.67891 18.4107 5.27724 18.1415 4.93914 17.8023C4.25789 17.1187 3.87574 16.1926 3.87662 15.2275C3.8775 14.2623 4.26133 13.337 4.94383 12.6547L7.65633 9.94214C7.99455 9.60382 8.39611 9.33544 8.83807 9.15234C9.28003 8.96924 9.75373 8.875 10.2321 8.875C10.7105 8.875 11.1842 8.96924 11.6262 9.15234C12.0681 9.33544 12.4697 9.60382 12.8079 9.94214C13.1593 10.292 13.4353 10.7101 13.6188 11.1707C13.8024 11.6313 13.8896 12.1247 13.8751 12.6203" stroke="#121212" stroke-width="1.2" stroke-linecap="round" stroke-linejoin="round"/>
</g>
</svg>
