<svg width="24" height="24" viewBox="0 0 24 24" fill="none" xmlns="http://www.w3.org/2000/svg">
<g clip-path="url(#clip0_0_276)">
<path d="M12 3.25C10.1773 3.25207 8.42979 3.97706 7.14092 5.26592C5.85206 6.55479 5.12707 8.30227 5.125 10.125C5.125 16.0078 11.375 20.4508 11.6414 20.6367C11.7465 20.7103 11.8717 20.7498 12 20.7498C12.1283 20.7498 12.2535 20.7103 12.3586 20.6367C12.625 20.4508 18.875 16.0078 18.875 10.125C18.8729 8.30227 18.1479 6.55479 16.8591 5.26592C15.5702 3.97706 13.8227 3.25207 12 3.25ZM12 7.625C12.4945 7.625 12.9778 7.77162 13.3889 8.04633C13.8 8.32103 14.1205 8.71148 14.3097 9.16829C14.4989 9.62511 14.5484 10.1278 14.452 10.6127C14.3555 11.0977 14.1174 11.5431 13.7678 11.8928C13.4181 12.2424 12.9727 12.4805 12.4877 12.577C12.0028 12.6734 11.5001 12.6239 11.0433 12.4347C10.5865 12.2455 10.196 11.925 9.92133 11.5139C9.64662 11.1028 9.5 10.6195 9.5 10.125C9.5 9.46196 9.76339 8.82607 10.2322 8.35723C10.7011 7.88839 11.337 7.625 12 7.625Z" fill="black"/>
</g>
<defs>
<clipPath id="clip0_0_276">
<rect width="20" height="20" fill="white" transform="translate(2 2)"/>
</clipPath>
</defs>
</svg>
