<svg width="24" height="24" viewBox="0 0 24 24" fill="none" xmlns="http://www.w3.org/2000/svg">
<path d="M16.7224 5.25C18.2564 5.25009 19.4999 6.50549 19.5 8.05416V13.8032C19.4999 15.3519 18.2564 16.6073 16.7224 16.6074H14.1521C13.9318 16.6074 13.7255 16.7173 13.6014 16.9011L12.5508 18.4562C12.2861 18.8479 11.7139 18.8479 11.4492 18.4562L10.3986 16.9011C10.2745 16.7173 10.0682 16.6074 9.84786 16.6074H7.27764C5.74362 16.6073 4.50008 15.3519 4.5 13.8032V8.05416C4.50008 6.50549 5.74362 5.25009 7.27764 5.25H16.7224ZM8.94435 10.0174C8.33076 10.0175 7.83342 10.5195 7.83339 11.139C7.83339 11.7585 8.33073 12.2608 8.94435 12.2608C9.558 12.2608 10.0556 11.7585 10.0556 11.139C10.0556 10.5195 9.55797 10.0174 8.94435 10.0174ZM12.0003 10.0174C11.3867 10.0174 10.8891 10.5195 10.8891 11.139C10.8891 11.7585 11.3867 12.2608 12.0003 12.2608C12.6139 12.2608 13.1112 11.7585 13.1112 11.139C13.1112 10.5195 12.6139 10.0175 12.0003 10.0174ZM15.056 10.0174C14.4423 10.0174 13.9448 10.5195 13.9447 11.139C13.9447 11.7585 14.4423 12.2608 15.056 12.2608C15.6695 12.2608 16.1669 11.7585 16.1669 11.139C16.1669 10.5195 15.6695 10.0175 15.056 10.0174Z" fill="#CBD1D7"/>
</svg>
