<svg width="38" height="38" viewBox="0 0 38 38" fill="none" xmlns="http://www.w3.org/2000/svg">
<g clip-path="url(#clip0_419_12352)">
<mask id="mask0_419_12352" style="mask-type:luminance" maskUnits="userSpaceOnUse" x="4" y="4" width="38" height="38">
<path d="M42 4H4V42H42V4Z" fill="white"/>
<path d="M19 5.25C23.7551 5.25 28.9998 8.61244 29 14.7422C29 18.7815 26.5376 22.3336 24.293 24.7593C23.1484 25.9961 22.0066 26.9966 21.1534 27.6877C20.9003 27.8927 20.6405 28.0926 20.377 28.2884C19.5596 28.8951 18.4403 28.8954 17.623 28.2884C17.3609 28.0936 17.1016 27.8942 16.8466 27.6877C15.9933 26.9966 14.8516 25.9961 13.707 24.7593C11.4623 22.3336 9 18.7815 9 14.7422C9.0002 8.61244 14.2449 5.25 19 5.25ZM19 10.25C16.2386 10.25 14 12.4886 14 15.25C14 18.0114 16.2386 20.25 19 20.25C21.7614 20.25 24 18.0114 24 15.25C24 12.4886 21.7614 10.25 19 10.25Z" fill="black"/>
</mask>
<g mask="url(#mask0_419_12352)">
<path d="M19 25.25C22.2309 25.25 25.2045 25.5289 27.4106 26.0007C28.5084 26.2355 29.4779 26.5316 30.1951 26.8942C30.9049 27.2532 31.5 27.75 31.5 28.375C31.5 29 30.9049 29.4968 30.1951 29.8558C29.4779 30.2184 28.5084 30.5145 27.4106 30.7493C25.2045 31.2211 22.2309 31.5 19 31.5C15.7691 31.5 12.7955 31.2211 10.5894 30.7493C9.49159 30.5145 8.52209 30.2184 7.80494 29.8558C7.0951 29.4968 6.5 29 6.5 28.375C6.5 27.75 7.0951 27.2532 7.80494 26.8942C8.52209 26.5316 9.49159 26.2355 10.5894 26.0007C12.7955 25.5289 15.7691 25.25 19 25.25ZM19 9C22.4517 9 25.25 11.7982 25.25 15.25C25.25 18.7017 22.4517 21.5 19 21.5C15.5482 21.5 12.75 18.7017 12.75 15.25C12.75 11.7982 15.5482 9 19 9Z" fill="url(#paint0_linear_419_12352)"/>
</g>
<mask id="mask1_419_12352" style="mask-type:luminance" maskUnits="userSpaceOnUse" x="9" y="5" width="20" height="24">
<path d="M19 5.25C23.7551 5.25 28.9998 8.61244 29 14.7422C29 18.7815 26.5376 22.3336 24.293 24.7593C23.1484 25.9961 22.0066 26.9966 21.1534 27.6877C20.9003 27.8927 20.6405 28.0926 20.377 28.2884C19.5596 28.8951 18.4403 28.8954 17.623 28.2884C17.3609 28.0936 17.1016 27.8942 16.8466 27.6877C15.9933 26.9966 14.8516 25.9961 13.707 24.7593C11.4623 22.3336 9 18.7815 9 14.7422C9.0002 8.61244 14.2449 5.25 19 5.25ZM19 10.25C16.2386 10.25 14 12.4886 14 15.25C14 18.0114 16.2386 20.25 19 20.25C21.7614 20.25 24 18.0114 24 15.25C24 12.4886 21.7614 10.25 19 10.25Z" fill="white"/>
</mask>
<g mask="url(#mask1_419_12352)">
<g filter="url(#filter0_f_419_12352)">
<path d="M19 25.25C22.2309 25.25 25.2045 25.5289 27.4106 26.0007C28.5084 26.2355 29.4779 26.5316 30.1951 26.8942C30.9049 27.2532 31.5 27.75 31.5 28.375C31.5 29 30.9049 29.4968 30.1951 29.8558C29.4779 30.2184 28.5084 30.5145 27.4106 30.7493C25.2045 31.2211 22.2309 31.5 19 31.5C15.7691 31.5 12.7955 31.2211 10.5894 30.7493C9.49159 30.5145 8.52209 30.2184 7.80494 29.8558C7.0951 29.4968 6.5 29 6.5 28.375C6.5 27.75 7.0951 27.2532 7.80494 26.8942C8.52209 26.5316 9.49159 26.2355 10.5894 26.0007C12.7955 25.5289 15.7691 25.25 19 25.25ZM19 9C22.4517 9 25.25 11.7982 25.25 15.25C25.25 18.7017 22.4517 21.5 19 21.5C15.5482 21.5 12.75 18.7017 12.75 15.25C12.75 11.7982 15.5482 9 19 9Z" fill="url(#paint1_linear_419_12352)"/>
</g>
</g>
<path d="M19 5.25C23.7551 5.25 28.9998 8.61244 29 14.7422C29 18.7815 26.5376 22.3336 24.293 24.7593C23.1484 25.9961 22.0066 26.9966 21.1534 27.6877C20.9003 27.8927 20.6405 28.0926 20.377 28.2884C19.5596 28.8951 18.4403 28.8954 17.623 28.2884C17.3609 28.0936 17.1016 27.8942 16.8466 27.6877C15.9933 26.9966 14.8516 25.9961 13.707 24.7593C11.4623 22.3336 9 18.7815 9 14.7422C9.0002 8.61244 14.2449 5.25 19 5.25ZM19 10.25C16.2386 10.25 14 12.4886 14 15.25C14 18.0114 16.2386 20.25 19 20.25C21.7614 20.25 24 18.0114 24 15.25C24 12.4886 21.7614 10.25 19 10.25Z" fill="url(#paint2_linear_419_12352)"/>
<path d="M19 5.25C23.7551 5.25 28.9998 8.61244 29 14.7422C29 18.7815 26.5376 22.3336 24.293 24.7593C23.1484 25.9961 22.0066 26.9966 21.1534 27.6877C20.9003 27.8927 20.6405 28.0926 20.377 28.2884C19.5596 28.8951 18.4403 28.8954 17.623 28.2884C17.3609 28.0936 17.1016 27.8942 16.8466 27.6877C15.9933 26.9966 14.8516 25.9961 13.707 24.7593C11.4623 22.3336 9 18.7815 9 14.7422C9.0002 8.61244 14.2449 5.25 19 5.25ZM19 6.1875C14.6065 6.1875 9.93769 9.27365 9.9375 14.7422C9.9375 18.4161 12.1938 21.7429 14.3955 24.1221C15.5016 25.3172 16.6075 26.2876 17.4362 26.959C17.679 27.1556 17.9283 27.3466 18.1821 27.5351C18.6674 27.8955 19.3322 27.8958 19.8179 27.5351C20.0729 27.3459 20.3228 27.1543 20.5638 26.959C21.3925 26.2876 22.4984 25.3172 23.6045 24.1221C25.8061 21.7429 28.0625 18.4161 28.0625 14.7422C28.0623 9.27365 23.3935 6.1875 19 6.1875Z" fill="url(#paint3_linear_419_12352)"/>
</g>
<defs>
<filter id="filter0_f_419_12352" x="1.5" y="4" width="35" height="32.5" filterUnits="userSpaceOnUse" color-interpolation-filters="sRGB">
<feFlood flood-opacity="0" result="BackgroundImageFix"/>
<feBlend mode="normal" in="SourceGraphic" in2="BackgroundImageFix" result="shape"/>
<feGaussianBlur stdDeviation="2.5" result="effect1_foregroundBlur_419_12352"/>
</filter>
<linearGradient id="paint0_linear_419_12352" x1="19" y1="4" x2="19" y2="35.25" gradientUnits="userSpaceOnUse">
<stop stop-color="#ABE6FF"/>
<stop offset="1" stop-color="#1599D0"/>
</linearGradient>
<linearGradient id="paint1_linear_419_12352" x1="19" y1="4" x2="19" y2="35.25" gradientUnits="userSpaceOnUse">
<stop stop-color="#ABE6FF"/>
<stop offset="1" stop-color="#1599D0"/>
</linearGradient>
<linearGradient id="paint2_linear_419_12352" x1="19" y1="5.25" x2="19" y2="28.7437" gradientUnits="userSpaceOnUse">
<stop stop-color="#A3D9FF" stop-opacity="0.61"/>
<stop offset="1" stop-color="#C5EFFF" stop-opacity="0.6"/>
</linearGradient>
<linearGradient id="paint3_linear_419_12352" x1="19" y1="5.25" x2="19" y2="18.855" gradientUnits="userSpaceOnUse">
<stop stop-color="#BEE1FF"/>
<stop offset="1" stop-color="#BEE1FF" stop-opacity="0"/>
</linearGradient>
<clipPath id="clip0_419_12352">
<rect width="38" height="38" fill="white"/>
</clipPath>
</defs>
</svg>
