<svg width="24" height="24" viewBox="0 0 24 24" fill="none" xmlns="http://www.w3.org/2000/svg">
<mask id="mask0_0_344" style="mask-type:luminance" maskUnits="userSpaceOnUse" x="2" y="2" width="20" height="20">
<path d="M22 2H2V22H22V2Z" fill="white"/>
</mask>
<g mask="url(#mask0_0_344)">
<path d="M12 15.125C13.7259 15.125 15.125 13.7259 15.125 12C15.125 10.2741 13.7259 8.875 12 8.875C10.2741 8.875 8.875 10.2741 8.875 12C8.875 13.7259 10.2741 15.125 12 15.125Z" stroke="#1599D0" stroke-width="1.2" stroke-linecap="round" stroke-linejoin="round"/>
<path d="M5.23667 15.9132C4.89133 15.3184 4.62677 14.6802 4.44995 14.0156L5.76089 12.3749C5.74604 12.1242 5.74604 11.8727 5.76089 11.6218L4.45073 9.9812C4.62725 9.31642 4.89128 8.67802 5.23589 8.08277L7.32261 7.84839C7.48924 7.66065 7.6669 7.48299 7.85464 7.31636L8.08902 5.23042C8.68342 4.88745 9.32077 4.62499 9.98433 4.44995L11.6249 5.76089C11.8758 5.74604 12.1273 5.74604 12.3781 5.76089L14.0187 4.45073C14.6835 4.62725 15.3219 4.89127 15.9172 5.23589L16.1515 7.32261C16.3393 7.48924 16.5169 7.6669 16.6836 7.85464L18.7695 8.08902C19.1148 8.68383 19.3794 9.32199 19.5562 9.98667L18.2453 11.6273C18.2601 11.8781 18.2601 12.1296 18.2453 12.3804L19.5554 14.0211C19.3802 14.6857 19.1174 15.324 18.7742 15.9195L16.6874 16.1538C16.5208 16.3416 16.3432 16.5192 16.1554 16.6859L15.9211 18.7718C15.3263 19.1172 14.6881 19.3817 14.0234 19.5586L12.3828 18.2476C12.1319 18.2624 11.8805 18.2624 11.6297 18.2476L9.98902 19.5577C9.32443 19.3825 8.68604 19.1197 8.09058 18.7765L7.8562 16.6898C7.66846 16.5232 7.49081 16.3455 7.32417 16.1577L5.23667 15.9132Z" stroke="#121212" stroke-width="1.2" stroke-linecap="round" stroke-linejoin="round"/>
</g>
</svg>
