<svg width="24" height="24" viewBox="0 0 24 24" fill="none" xmlns="http://www.w3.org/2000/svg">
<mask id="mask0_0_347" style="mask-type:luminance" maskUnits="userSpaceOnUse" x="2" y="2" width="20" height="20">
<path d="M22 2H2V22H22V2Z" fill="white"/>
</mask>
<g mask="url(#mask0_0_347)">
<path d="M7 14.5C8.38071 14.5 9.5 13.3807 9.5 12C9.5 10.6192 8.38071 9.5 7 9.5C5.61929 9.5 4.5 10.6192 4.5 12C4.5 13.3807 5.61929 14.5 7 14.5Z" stroke="#121212" stroke-width="1.2" stroke-linecap="round" stroke-linejoin="round"/>
<path d="M15.75 20.125C17.1307 20.125 18.25 19.0057 18.25 17.625C18.25 16.2442 17.1307 15.125 15.75 15.125C14.3692 15.125 13.25 16.2442 13.25 17.625C13.25 19.0057 14.3692 20.125 15.75 20.125Z" stroke="#121212" stroke-width="1.2" stroke-linecap="round" stroke-linejoin="round"/>
<path d="M15.75 8.875C17.1307 8.875 18.25 7.75571 18.25 6.375C18.25 4.99429 17.1307 3.875 15.75 3.875C14.3692 3.875 13.25 4.99429 13.25 6.375C13.25 7.75571 14.3692 8.875 15.75 8.875Z" stroke="#121212" stroke-width="1.2" stroke-linecap="round" stroke-linejoin="round"/>
<path d="M13.6476 7.72652L9.10226 10.6484" stroke="#121212" stroke-width="1.2" stroke-linecap="round" stroke-linejoin="round"/>
<path d="M9.10226 13.3515L13.6476 16.2734" stroke="#121212" stroke-width="1.2" stroke-linecap="round" stroke-linejoin="round"/>
</g>
</svg>
