<svg width="24" height="24" viewBox="0 0 24 24" fill="none" xmlns="http://www.w3.org/2000/svg">
<path d="M12.5 4C9.03345 4 6 4.4103 6 7.28206V15.4871C6 17.0873 7.22104 18.3589 8.75757 18.3589L7.77272 19.3846V20H17.2273V19.3846L16.2424 18.3589C17.7789 18.3589 19 17.0873 19 15.4871V7.28206C19 4.4103 15.9666 4 12.5 4ZM8.95456 16.9231C8.28475 16.9231 7.77272 16.3898 7.77272 15.6923C7.77272 14.9948 8.28475 14.4615 8.95456 14.4615C9.62433 14.4615 10.1364 14.9948 10.1364 15.6923C10.1364 16.3898 9.62433 16.9231 8.95456 16.9231ZM11.909 11.3846H7.77272V7.6923H11.909V11.3846ZM16.0454 16.9231C15.3757 16.9231 14.8636 16.3898 14.8636 15.6923C14.8636 14.9948 15.3757 14.4615 16.0454 14.4615C16.7153 14.4615 17.2273 14.9948 17.2273 15.6923C17.2273 16.3898 16.7153 16.9231 16.0454 16.9231ZM17.2273 11.3846H13.091V7.6923H17.2273V11.3846Z" fill="#121212"/>
</svg>
