<svg width="24" height="24" viewBox="0 0 24 24" fill="none" xmlns="http://www.w3.org/2000/svg">
<path d="M19 13.9304L15.0819 18.8956L12.4667 17.0359" stroke="#1599D0" stroke-width="1.2" stroke-linecap="round" stroke-linejoin="round"/>
<path d="M10.8152 9.62488C12.4211 9.62488 13.7229 8.36571 13.7229 6.81246C13.7229 5.25917 12.4211 4 10.8152 4C9.20933 4 7.90755 5.25917 7.90755 6.81246C7.90755 8.36571 9.20933 9.62488 10.8152 9.62488Z" stroke="#121212" stroke-width="1.2" stroke-linecap="round" stroke-linejoin="round"/>
<path d="M8.23078 19H5V17.1251C5.00103 16.0133 5.34263 14.9267 5.98168 14.0026C6.62078 13.0785 7.52863 12.3583 8.59063 11.933C9.65267 11.5076 10.8211 11.3963 11.9485 11.6129C13.0759 11.8296 14.1117 12.3644 14.925 13.1501" stroke="#121212" stroke-width="1.2" stroke-linecap="round" stroke-linejoin="round"/>
</svg>
