<svg width="447" height="135" viewBox="0 0 447 135" fill="none" xmlns="http://www.w3.org/2000/svg">
<path d="M73.0619 97.7215C73.0619 101.433 70.0515 104.438 66.3359 104.438C62.6229 104.438 59.6104 101.433 59.6104 97.7215C59.6104 94.0097 62.6229 91.0024 66.3359 91.0024C70.0515 91.0024 73.0619 94.0097 73.0619 97.7215Z" fill="#52CCCC"/>
<path d="M57.3171 81.9933C57.3171 85.7051 54.3067 88.7123 50.5937 88.7123C46.878 88.7123 43.8677 85.7051 43.8677 81.9933C43.8677 78.2841 46.878 75.2769 50.5937 75.2769C54.3067 75.2769 57.3171 78.2841 57.3171 81.9933Z" fill="#52CCCC"/>
<path d="M59.0663 50.5389C59.0663 55.2159 55.2735 59.0047 50.5938 59.0047C45.9119 59.0047 42.1191 55.2159 42.1191 50.5389C42.1191 45.8662 45.9119 42.0752 50.5938 42.0752C55.2735 42.0752 59.0663 45.8662 59.0663 50.5389Z" fill="#35BFD5"/>
<path d="M55.6375 50.5389C55.6375 53.3225 53.378 55.5797 50.5937 55.5797C47.8072 55.5797 45.5498 53.3225 45.5498 50.5389C45.5498 47.7575 47.8072 45.5024 50.5937 45.5024C53.378 45.5024 55.6375 47.7575 55.6375 50.5389Z" fill="#1599D0"/>
<path d="M59.0663 66.2675C59.0663 70.9423 55.2735 74.7312 50.5938 74.7312C45.9119 74.7312 42.1191 70.9423 42.1191 66.2675C42.1191 61.5921 45.9119 57.8032 50.5938 57.8032C55.2735 57.8032 59.0663 61.5921 59.0663 66.2675Z" fill="#35BFD5"/>
<path d="M90.5531 66.2675C90.5531 70.9423 86.7603 74.7312 82.0806 74.7312C77.4004 74.7312 73.606 70.9423 73.606 66.2675C73.606 61.5921 77.4004 57.8032 82.0806 57.8032C86.7603 57.8032 90.5531 61.5921 90.5531 66.2675Z" fill="#35BFD5"/>
<path d="M90.5531 50.5389C90.5531 55.2159 86.7603 59.0047 82.0806 59.0047C77.4004 59.0047 73.606 55.2159 73.606 50.5389C73.606 45.8662 77.4004 42.0752 82.0806 42.0752C86.7603 42.0752 90.5531 45.8662 90.5531 50.5389Z" fill="#35BFD5"/>
<path d="M55.6375 66.2674C55.6375 69.051 53.378 71.306 50.5937 71.306C47.8072 71.306 45.5498 69.051 45.5498 66.2674C45.5498 63.4854 47.8072 61.2288 50.5937 61.2288C53.378 61.2288 55.6375 63.4854 55.6375 66.2674Z" fill="#1599D0"/>
<path d="M87.1243 66.2674C87.1243 69.051 84.8648 71.306 82.0805 71.306C79.294 71.306 77.0366 69.051 77.0366 66.2674C77.0366 63.4854 79.294 61.2288 82.0805 61.2288C84.8648 61.2288 87.1243 63.4854 87.1243 66.2674Z" fill="#1599D0"/>
<path d="M87.1243 81.993C87.1243 84.7766 84.8648 87.0317 82.0805 87.0317C79.294 87.0317 77.0366 84.7766 77.0366 81.993C77.0366 79.2116 79.294 76.9565 82.0805 76.9565C84.8648 76.9565 87.1243 79.2116 87.1243 81.993Z" fill="#1599D0"/>
<path d="M71.3797 97.7217C71.3797 100.505 69.1223 102.76 66.3359 102.76C63.5515 102.76 61.292 100.505 61.292 97.7217C61.292 94.9397 63.5515 92.6831 66.3359 92.6831C69.1223 92.6831 71.3797 94.9397 71.3797 97.7217Z" fill="#1599D0"/>
<path d="M55.6375 34.813C55.6375 37.5966 53.378 39.8517 50.5937 39.8517C47.8072 39.8517 45.5498 37.5966 45.5498 34.813C45.5498 32.0316 47.8072 29.7744 50.5937 29.7744C53.378 29.7744 55.6375 32.0316 55.6375 34.813Z" fill="#1599D0"/>
<path d="M55.6375 113.447C55.6375 116.231 53.378 118.486 50.5937 118.486C47.8072 118.486 45.5498 116.231 45.5498 113.447C45.5498 110.666 47.8072 108.411 50.5937 108.411C53.378 108.411 55.6375 110.666 55.6375 113.447Z" fill="#1599D0"/>
<path d="M55.6375 81.993C55.6375 84.7766 53.378 87.0317 50.5937 87.0317C47.8072 87.0317 45.5498 84.7766 45.5498 81.993C45.5498 79.2116 47.8072 76.9565 50.5937 76.9565C53.378 76.9565 55.6375 79.2116 55.6375 81.993Z" fill="#1599D0"/>
<path d="M43.322 66.2675C43.322 70.9423 39.5292 74.7312 34.849 74.7312C30.1693 74.7312 26.3765 70.9423 26.3765 66.2675C26.3765 61.5921 30.1693 57.8032 34.849 57.8032C39.5292 57.8032 43.322 61.5921 43.322 66.2675Z" fill="#35BFD5"/>
<path d="M43.322 81.9932C43.322 86.6681 39.5292 90.4591 34.849 90.4591C30.1693 90.4591 26.3765 86.6681 26.3765 81.9932C26.3765 77.3206 30.1693 73.5295 34.849 73.5295C39.5292 73.5295 43.322 77.3206 43.322 81.9932Z" fill="#35BFD5"/>
<path d="M39.8924 66.2674C39.8924 69.051 37.6351 71.306 34.8486 71.306C32.0642 71.306 29.8047 69.051 29.8047 66.2674C29.8047 63.4854 32.0642 61.2288 34.8486 61.2288C37.6351 61.2288 39.8924 63.4854 39.8924 66.2674Z" fill="#1599D0"/>
<path d="M39.8924 50.5389C39.8924 53.3225 37.6351 55.5797 34.8486 55.5797C32.0642 55.5797 29.8047 53.3225 29.8047 50.5389C29.8047 47.7575 32.0642 45.5024 34.8486 45.5024C37.6351 45.5024 39.8924 47.7575 39.8924 50.5389Z" fill="#1599D0"/>
<path d="M39.8924 97.7217C39.8924 100.503 37.6351 102.76 34.8486 102.76C32.0642 102.76 29.8047 100.503 29.8047 97.7217C29.8047 94.9381 32.0642 92.6831 34.8486 92.6831C37.6351 92.6831 39.8924 94.9381 39.8924 97.7217Z" fill="#1599D0"/>
<path d="M24.1502 34.813C24.1502 37.5966 21.8907 39.8517 19.1042 39.8517C16.3199 39.8517 14.0625 37.5966 14.0625 34.813C14.0625 32.0316 16.3199 29.7744 19.1042 29.7744C21.8907 29.7744 24.1502 32.0316 24.1502 34.813Z" fill="#1599D0"/>
<path d="M73.0619 66.2631C73.0619 69.9744 70.0515 72.9816 66.3359 72.9816C62.6229 72.9816 59.6104 69.9744 59.6104 66.2631C59.6104 62.5534 62.6229 59.5461 66.3359 59.5461C70.0515 59.5461 73.0619 62.5534 73.0619 66.2631Z" fill="#52CCCC"/>
<path d="M88.8039 34.8131C88.8039 38.5243 85.7935 41.5316 82.0805 41.5316C78.3648 41.5316 75.3545 38.5243 75.3545 34.8131C75.3545 31.1034 78.3648 28.094 82.0805 28.094C85.7935 28.094 88.8039 31.1034 88.8039 34.8131Z" fill="#52CCCC"/>
<path d="M25.8298 66.2631C25.8298 69.9744 22.8194 72.9816 19.1064 72.9816C15.3907 72.9816 12.3804 69.9744 12.3804 66.2631C12.3804 62.5534 15.3907 59.5461 19.1064 59.5461C22.8194 59.5461 25.8298 62.5534 25.8298 66.2631Z" fill="#52CCCC"/>
<path d="M73.0618 50.5705C73.0452 54.2818 70.0198 57.2746 66.3047 57.258C62.5912 57.2414 59.5931 54.2192 59.6124 50.5079C59.629 46.7983 62.6538 43.8055 66.3674 43.8226C70.0809 43.8392 73.0784 46.8608 73.0618 50.5705Z" fill="#52CCCC"/>
<path d="M53.9553 19.0848C53.9553 20.9407 52.4494 22.4456 50.5937 22.4456C48.7358 22.4456 47.2314 20.9407 47.2314 19.0848C47.2314 17.231 48.7358 15.7266 50.5937 15.7266C52.4494 15.7266 53.9553 17.231 53.9553 19.0848Z" fill="#003D85"/>
<path d="M69.698 34.8131C69.698 36.6685 68.1936 38.1713 66.3358 38.1713C64.4801 38.1713 62.9741 36.6685 62.9741 34.8131C62.9741 32.9572 64.4801 31.4543 66.3358 31.4543C68.1936 31.4543 69.698 32.9572 69.698 34.8131Z" fill="#003D85"/>
<path d="M69.698 50.5389C69.698 52.3948 68.1936 53.8992 66.3358 53.8992C64.4801 53.8992 62.9741 52.3948 62.9741 50.5389C62.9741 48.6851 64.4801 47.1807 66.3358 47.1807C68.1936 47.1807 69.698 48.6851 69.698 50.5389Z" fill="#003D85"/>
<path d="M66.3358 85.3535C64.4785 85.3535 62.9741 83.8491 62.9741 81.9932C62.9741 80.1394 64.4785 78.635 66.3358 78.635C68.1936 78.635 69.7002 80.1394 69.7002 81.9932C69.7002 83.8491 68.1936 85.3535 66.3358 85.3535Z" fill="#003D85"/>
<path d="M82.0807 101.08C80.2228 101.08 78.7163 99.5769 78.7163 97.7215C78.7163 95.8656 80.2228 94.3628 82.0807 94.3628C83.938 94.3628 85.4423 95.8656 85.4423 97.7215C85.4423 99.5769 83.938 101.08 82.0807 101.08Z" fill="#003D85"/>
<path d="M15.7427 97.7215C15.7427 95.8656 17.2487 94.3628 19.1065 94.3628C20.9622 94.3628 22.4682 95.8656 22.4682 97.7215C22.4682 99.5769 20.9622 101.08 19.1065 101.08C17.2487 101.08 15.7427 99.5769 15.7427 97.7215Z" fill="#003D85"/>
<path d="M15.7427 81.9932C15.7427 80.1394 17.2487 78.635 19.1065 78.635C20.9622 78.635 22.4682 80.1394 22.4682 81.9932C22.4682 83.8491 20.9622 85.3535 19.1065 85.3535C17.2487 85.3535 15.7427 83.8491 15.7427 81.9932Z" fill="#003D85"/>
<path d="M19.1065 47.1807C20.9622 47.1807 22.4682 48.6851 22.4682 50.541C22.4682 52.3948 20.9622 53.8992 19.1065 53.8992C17.2487 53.8992 15.7427 52.3948 15.7427 50.541C15.7427 48.6851 17.2487 47.1807 19.1065 47.1807Z" fill="#003D85"/>
<path d="M34.8485 31.4543C36.7063 31.4543 38.2129 32.9572 38.2129 34.8131C38.2129 36.6685 36.7063 38.1713 34.8485 38.1713C32.9912 38.1713 31.4868 36.6685 31.4868 34.8131C31.4868 32.9572 32.9912 31.4543 34.8485 31.4543Z" fill="#003D85"/>
<path d="M50.5933 101.08C48.7355 101.08 47.2295 99.5769 47.2295 97.7215C47.2295 95.8656 48.7355 94.3628 50.5933 94.3628C52.4512 94.3628 53.955 95.8656 53.955 97.7215C53.955 99.5769 52.4512 101.08 50.5933 101.08Z" fill="#003D85"/>
<path d="M0 66.2674C0 64.4115 1.50437 62.9087 3.36168 62.9087C5.21952 62.9087 6.7239 64.4115 6.7239 66.2674C6.7239 68.1228 5.21952 69.6256 3.36168 69.6256C1.50437 69.6256 0 68.1228 0 66.2674Z" fill="#003D85"/>
<path d="M183.264 97.7215C183.264 101.433 180.254 104.438 176.541 104.438C172.825 104.438 169.815 101.433 169.815 97.7215C169.815 94.0097 172.825 91.0024 176.541 91.0024C180.254 91.0024 183.264 94.0097 183.264 97.7215Z" fill="#52CCCC"/>
<path d="M169.271 97.7216C169.271 102.396 165.476 106.185 160.796 106.185C156.117 106.185 152.324 102.396 152.324 97.7216C152.324 93.0462 156.117 89.2573 160.796 89.2573C165.476 89.2573 169.271 93.0462 169.271 97.7216Z" fill="#35BFD5"/>
<path d="M120.291 34.8131C120.291 38.5243 117.28 41.5316 113.567 41.5316C109.852 41.5316 106.841 38.5243 106.841 34.8131C106.841 31.1034 109.852 28.094 113.567 28.094C117.28 28.094 120.291 31.1034 120.291 34.8131Z" fill="#52CCCC"/>
<path d="M120.291 81.9933C120.291 85.7051 117.28 88.7123 113.567 88.7123C109.852 88.7123 106.841 85.7051 106.841 81.9933C106.841 78.2841 109.852 75.2769 113.567 75.2769C117.28 75.2769 120.291 78.2841 120.291 81.9933Z" fill="#52CCCC"/>
<path d="M199.009 81.9933C199.009 85.7051 195.999 88.7123 192.283 88.7123C188.57 88.7123 185.558 85.7051 185.558 81.9933C185.558 78.2841 188.57 75.2769 192.283 75.2769C195.999 75.2769 199.009 78.2841 199.009 81.9933Z" fill="#52CCCC"/>
<path d="M167.522 19.1162C167.506 22.8275 164.478 25.8203 160.765 25.8037C157.052 25.7871 154.054 22.7649 154.073 19.0557C154.089 15.3439 157.114 12.3511 160.828 12.3682C164.541 12.3848 167.539 15.4065 167.522 19.1162Z" fill="#52CCCC"/>
<path d="M167.523 97.7215C167.523 101.433 164.512 104.438 160.797 104.438C157.084 104.438 154.073 101.433 154.073 97.7215C154.073 94.0097 157.084 91.0024 160.797 91.0024C164.512 91.0024 167.523 94.0097 167.523 97.7215Z" fill="#52CCCC"/>
<path d="M151.778 81.9933C151.778 85.7051 148.767 88.7123 145.054 88.7123C141.338 88.7123 138.328 85.7051 138.328 81.9933C138.328 78.2841 141.338 75.2769 145.054 75.2769C148.767 75.2769 151.778 78.2841 151.778 81.9933Z" fill="#52CCCC"/>
<path d="M153.527 50.5389C153.527 55.2159 149.734 59.0047 145.054 59.0047C140.374 59.0047 136.579 55.2159 136.579 50.5389C136.579 45.8662 140.374 42.0752 145.054 42.0752C149.734 42.0752 153.527 45.8662 153.527 50.5389Z" fill="#35BFD5"/>
<path d="M153.527 34.8131C153.527 39.4879 149.734 43.2768 145.054 43.2768C140.374 43.2768 136.579 39.4879 136.579 34.8131C136.579 30.1377 140.374 26.3489 145.054 26.3489C149.734 26.3489 153.527 30.1377 153.527 34.8131Z" fill="#35BFD5"/>
<path d="M185.014 81.9932C185.014 86.6681 181.221 90.4591 176.541 90.4591C171.861 90.4591 168.066 86.6681 168.066 81.9932C168.066 77.3206 171.861 73.5295 176.541 73.5295C181.221 73.5295 185.014 77.3206 185.014 81.9932Z" fill="#35BFD5"/>
<path d="M150.098 50.5389C150.098 53.3225 147.838 55.5797 145.054 55.5797C142.268 55.5797 140.01 53.3225 140.01 50.5389C140.01 47.7575 142.268 45.5024 145.054 45.5024C147.838 45.5024 150.098 47.7575 150.098 50.5389Z" fill="#1599D0"/>
<path d="M153.527 66.2675C153.527 70.9423 149.734 74.7312 145.054 74.7312C140.374 74.7312 136.579 70.9423 136.579 66.2675C136.579 61.5921 140.374 57.8032 145.054 57.8032C149.734 57.8032 153.527 61.5921 153.527 66.2675Z" fill="#35BFD5"/>
<path d="M185.014 66.2675C185.014 70.9423 181.221 74.7312 176.541 74.7312C171.861 74.7312 168.066 70.9423 168.066 66.2675C168.066 61.5921 171.861 57.8032 176.541 57.8032C181.221 57.8032 185.014 61.5921 185.014 66.2675Z" fill="#35BFD5"/>
<path d="M185.014 50.5389C185.014 55.2159 181.221 59.0047 176.541 59.0047C171.861 59.0047 168.066 55.2159 168.066 50.5389C168.066 45.8662 171.861 42.0752 176.541 42.0752C181.221 42.0752 185.014 45.8662 185.014 50.5389Z" fill="#35BFD5"/>
<path d="M150.098 66.2674C150.098 69.051 147.838 71.306 145.054 71.306C142.268 71.306 140.01 69.051 140.01 66.2674C140.01 63.4854 142.268 61.2288 145.054 61.2288C147.838 61.2288 150.098 63.4854 150.098 66.2674Z" fill="#1599D0"/>
<path d="M181.585 66.2674C181.585 69.051 179.326 71.306 176.541 71.306C173.755 71.306 171.498 69.051 171.498 66.2674C171.498 63.4854 173.755 61.2288 176.541 61.2288C179.326 61.2288 181.585 63.4854 181.585 66.2674Z" fill="#1599D0"/>
<path d="M181.585 81.993C181.585 84.7766 179.326 87.0317 176.541 87.0317C173.755 87.0317 171.498 84.7766 171.498 81.993C171.498 79.2116 173.755 76.9565 176.541 76.9565C179.326 76.9565 181.585 79.2116 181.585 81.993Z" fill="#1599D0"/>
<path d="M213.072 66.263C213.072 69.0466 210.813 71.3016 208.028 71.3016C205.241 71.3016 202.984 69.0466 202.984 66.263C202.984 63.4815 205.241 61.2244 208.028 61.2244C210.813 61.2244 213.072 63.4815 213.072 66.263Z" fill="#1599D0"/>
<path d="M181.585 97.7217C181.585 100.503 179.326 102.76 176.541 102.76C173.755 102.76 171.498 100.503 171.498 97.7217C171.498 94.9381 173.755 92.6831 176.541 92.6831C179.326 92.6831 181.585 94.9381 181.585 97.7217Z" fill="#1599D0"/>
<path d="M150.098 113.447C150.098 116.231 147.838 118.486 145.054 118.486C142.268 118.486 140.01 116.231 140.01 113.447C140.01 110.666 142.268 108.411 145.054 108.411C147.838 108.411 150.098 110.666 150.098 113.447Z" fill="#1599D0"/>
<path d="M150.098 129.176C150.098 131.957 147.838 134.214 145.054 134.214C142.268 134.214 140.01 131.957 140.01 129.176C140.01 126.392 142.268 124.137 145.054 124.137C147.838 124.137 150.098 126.392 150.098 129.176Z" fill="#1599D0"/>
<path d="M150.098 81.993C150.098 84.7766 147.838 87.0317 145.054 87.0317C142.268 87.0317 140.01 84.7766 140.01 81.993C140.01 79.2116 142.268 76.9565 145.054 76.9565C147.838 76.9565 150.098 79.2116 150.098 81.993Z" fill="#1599D0"/>
<path d="M137.782 66.2675C137.782 70.9423 133.99 74.7312 129.309 74.7312C124.63 74.7312 120.837 70.9423 120.837 66.2675C120.837 61.5921 124.63 57.8032 129.309 57.8032C133.99 57.8032 137.782 61.5921 137.782 66.2675Z" fill="#35BFD5"/>
<path d="M137.782 81.9932C137.782 86.6681 133.99 90.4591 129.309 90.4591C124.63 90.4591 120.837 86.6681 120.837 81.9932C120.837 77.3206 124.63 73.5295 129.309 73.5295C133.99 73.5295 137.782 77.3206 137.782 81.9932Z" fill="#35BFD5"/>
<path d="M134.353 66.2674C134.353 69.051 132.096 71.306 129.309 71.306C126.525 71.306 124.266 69.051 124.266 66.2674C124.266 63.4854 126.525 61.2288 129.309 61.2288C132.096 61.2288 134.353 63.4854 134.353 66.2674Z" fill="#1599D0"/>
<path d="M134.353 50.5389C134.353 53.3225 132.096 55.5797 129.309 55.5797C126.525 55.5797 124.266 53.3225 124.266 50.5389C124.266 47.7575 126.525 45.5024 129.309 45.5024C132.096 45.5024 134.353 47.7575 134.353 50.5389Z" fill="#1599D0"/>
<path d="M134.353 97.7217C134.353 100.503 132.096 102.76 129.309 102.76C126.525 102.76 124.266 100.503 124.266 97.7217C124.266 94.9381 126.525 92.6831 129.309 92.6831C132.096 92.6831 134.353 94.9381 134.353 97.7217Z" fill="#1599D0"/>
<path d="M118.611 97.7217C118.611 100.503 116.352 102.76 113.565 102.76C110.781 102.76 108.523 100.503 108.523 97.7217C108.523 94.9381 110.781 92.6831 113.565 92.6831C116.352 92.6831 118.611 94.9381 118.611 97.7217Z" fill="#1599D0"/>
<path d="M102.867 50.5389C102.867 53.3225 100.609 55.5797 97.8227 55.5797C95.0383 55.5797 92.7788 53.3225 92.7788 50.5389C92.7788 47.7575 95.0383 45.5024 97.8227 45.5024C100.609 45.5024 102.867 47.7575 102.867 50.5389Z" fill="#1599D0"/>
<path d="M102.867 34.813C102.867 37.5966 100.609 39.8517 97.8227 39.8517C95.0383 39.8517 92.7788 37.5966 92.7788 34.813C92.7788 32.0316 95.0383 29.7744 97.8227 29.7744C100.609 29.7744 102.867 32.0316 102.867 34.813Z" fill="#1599D0"/>
<path d="M134.353 19.0846C134.353 21.8682 132.096 24.1254 129.309 24.1254C126.525 24.1254 124.266 21.8682 124.266 19.0846C124.266 16.3031 126.525 14.0481 129.309 14.0481C132.096 14.0481 134.353 16.3031 134.353 19.0846Z" fill="#1599D0"/>
<path d="M165.84 19.0846C165.84 21.8682 163.583 24.1254 160.796 24.1254C158.012 24.1254 155.752 21.8682 155.752 19.0846C155.752 16.3031 158.012 14.0481 160.796 14.0481C163.583 14.0481 165.84 16.3031 165.84 19.0846Z" fill="#1599D0"/>
<path d="M167.523 66.2631C167.523 69.9744 164.512 72.9816 160.797 72.9816C157.084 72.9816 154.073 69.9744 154.073 66.2631C154.073 62.5534 157.084 59.5461 160.797 59.5461C164.512 59.5461 167.523 62.5534 167.523 66.2631Z" fill="#52CCCC"/>
<path d="M183.264 34.8131C183.264 38.5243 180.254 41.5316 176.541 41.5316C172.825 41.5316 169.815 38.5243 169.815 34.8131C169.815 31.1034 172.825 28.094 176.541 28.094C180.254 28.094 183.264 31.1034 183.264 34.8131Z" fill="#52CCCC"/>
<path d="M120.291 66.2631C120.291 69.9744 117.28 72.9816 113.567 72.9816C109.852 72.9816 106.841 69.9744 106.841 66.2631C106.841 62.5534 109.852 59.5461 113.567 59.5461C117.28 59.5461 120.291 62.5534 120.291 66.2631Z" fill="#52CCCC"/>
<path d="M136.036 113.447C136.036 117.159 133.023 120.166 129.309 120.166C125.596 120.166 122.584 117.159 122.584 113.447C122.584 109.738 125.596 106.73 129.309 106.73C133.023 106.73 136.036 109.738 136.036 113.447Z" fill="#52CCCC"/>
<path d="M104.549 66.2631C104.549 69.9744 101.538 72.9816 97.8225 72.9816C94.1095 72.9816 91.0991 69.9744 91.0991 66.2631C91.0991 62.5534 94.1095 59.5461 97.8225 59.5461C101.538 59.5461 104.549 62.5534 104.549 66.2631Z" fill="#52CCCC"/>
<path d="M167.522 50.5705C167.506 54.2818 164.478 57.2746 160.765 57.258C157.052 57.2414 154.054 54.2192 154.073 50.5079C154.089 46.7983 157.114 43.8055 160.828 43.8226C164.541 43.8392 167.539 46.8608 167.522 50.5705Z" fill="#52CCCC"/>
<path d="M148.416 19.0848C148.416 20.9407 146.91 22.4456 145.054 22.4456C143.196 22.4456 141.69 20.9407 141.69 19.0848C141.69 17.231 143.196 15.7266 145.054 15.7266C146.91 15.7266 148.416 17.231 148.416 19.0848Z" fill="#003D85"/>
<path d="M179.903 19.0848C179.903 20.9407 178.397 22.4456 176.541 22.4456C174.683 22.4456 173.179 20.9407 173.179 19.0848C173.179 17.231 174.683 15.7266 176.541 15.7266C178.397 15.7266 179.903 17.231 179.903 19.0848Z" fill="#001756"/>
<path d="M148.416 3.35873C148.416 5.21411 146.91 6.71693 145.054 6.71693C143.196 6.71693 141.69 5.21411 141.69 3.35873C141.69 1.50282 143.196 0 145.054 0C146.91 0 148.416 1.50282 148.416 3.35873Z" fill="#003D85"/>
<path d="M164.158 34.8131C164.158 36.6685 162.654 38.1713 160.796 38.1713C158.941 38.1713 157.435 36.6685 157.435 34.8131C157.435 32.9572 158.941 31.4543 160.796 31.4543C162.654 31.4543 164.158 32.9572 164.158 34.8131Z" fill="#003D85"/>
<path d="M164.158 50.5389C164.158 52.3948 162.654 53.8992 160.796 53.8992C158.941 53.8992 157.435 52.3948 157.435 50.5389C157.435 48.6851 158.941 47.1807 160.796 47.1807C162.654 47.1807 164.158 48.6851 164.158 50.5389Z" fill="#003D85"/>
<path d="M160.796 85.3535C158.938 85.3535 157.435 83.8491 157.435 81.9932C157.435 80.1394 158.938 78.635 160.796 78.635C162.654 78.635 164.16 80.1394 164.16 81.9932C164.16 83.8491 162.654 85.3535 160.796 85.3535Z" fill="#003D85"/>
<path d="M110.203 81.9932C110.203 80.1394 111.71 78.635 113.567 78.635C115.423 78.635 116.929 80.1394 116.929 81.9932C116.929 83.8491 115.423 85.3535 113.567 85.3535C111.71 85.3535 110.203 83.8491 110.203 81.9932Z" fill="#003D85"/>
<path d="M113.567 47.1807C115.423 47.1807 116.929 48.6851 116.929 50.541C116.929 52.3948 115.423 53.8992 113.567 53.8992C111.71 53.8992 110.203 52.3948 110.203 50.541C110.203 48.6851 111.71 47.1807 113.567 47.1807Z" fill="#003D85"/>
<path d="M129.309 31.4543C131.167 31.4543 132.673 32.9572 132.673 34.8131C132.673 36.6685 131.167 38.1713 129.309 38.1713C127.452 38.1713 125.948 36.6685 125.948 34.8131C125.948 32.9572 127.452 31.4543 129.309 31.4543Z" fill="#003D85"/>
<path d="M195.646 50.5389C195.646 52.3948 194.141 53.8992 192.284 53.8992C190.428 53.8992 188.922 52.3948 188.922 50.5389C188.922 48.6851 190.428 47.1807 192.284 47.1807C194.141 47.1807 195.646 48.6851 195.646 50.5389Z" fill="#003D85"/>
<path d="M195.646 34.8131C195.646 36.6685 194.141 38.1713 192.284 38.1713C190.428 38.1713 188.922 36.6685 188.922 34.8131C188.922 32.9572 190.428 31.4543 192.284 31.4543C194.141 31.4543 195.646 32.9572 195.646 34.8131Z" fill="#003D85"/>
<path d="M192.284 101.08C190.426 101.08 188.922 99.5769 188.922 97.7215C188.922 95.8656 190.426 94.3628 192.284 94.3628C194.141 94.3628 195.647 95.8656 195.647 97.7215C195.647 99.5769 194.141 101.08 192.284 101.08Z" fill="#003D85"/>
<path d="M176.541 116.808C174.683 116.808 173.177 115.303 173.177 113.447C173.177 111.594 174.683 110.089 176.541 110.089C178.397 110.089 179.903 111.594 179.903 113.447C179.903 115.303 178.397 116.808 176.541 116.808Z" fill="#003D85"/>
<path d="M110.203 113.447C110.203 111.594 111.71 110.089 113.567 110.089C115.423 110.089 116.929 111.594 116.929 113.447C116.929 115.303 115.423 116.808 113.567 116.808C111.71 116.808 110.203 115.303 110.203 113.447Z" fill="#003D85"/>
<path d="M94.4609 97.7215C94.4609 95.8656 95.9653 94.3628 97.8226 94.3628C99.6805 94.3628 101.185 95.8656 101.185 97.7215C101.185 99.5769 99.6805 101.08 97.8226 101.08C95.9653 101.08 94.4609 99.5769 94.4609 97.7215Z" fill="#003D85"/>
<path d="M113.567 15.7266C115.425 15.7266 116.929 17.231 116.929 19.0869C116.929 20.9407 115.425 22.4456 113.567 22.4456C111.71 22.4456 110.203 20.9407 110.203 19.0869C110.203 17.231 111.71 15.7266 113.567 15.7266Z" fill="#003D85"/>
<path d="M160.796 116.808C158.938 116.808 157.435 115.303 157.435 113.447C157.435 111.594 158.938 110.089 160.796 110.089C162.654 110.089 164.16 111.594 164.16 113.447C164.16 115.303 162.654 116.808 160.796 116.808Z" fill="#003D85"/>
<path d="M94.4609 81.9932C94.4609 80.1394 95.9653 78.635 97.8226 78.635C99.6805 78.635 101.185 80.1394 101.185 81.9932C101.185 83.8491 99.6805 85.3535 97.8226 85.3535C95.9653 85.3535 94.4609 83.8491 94.4609 81.9932Z" fill="#003D85"/>
<path d="M195.646 66.2674C195.646 68.1228 194.141 69.6256 192.284 69.6256C190.428 69.6256 188.922 68.1228 188.922 66.2674C188.922 64.4115 190.428 62.9087 192.284 62.9087C194.141 62.9087 195.646 64.4115 195.646 66.2674Z" fill="#003D85"/>
<path d="M145.054 101.08C143.196 101.08 141.69 99.5769 141.69 97.7215C141.69 95.8656 143.196 94.3628 145.054 94.3628C146.912 94.3628 148.416 95.8656 148.416 97.7215C148.416 99.5769 146.912 101.08 145.054 101.08Z" fill="#003D85"/>
<path d="M94.4609 66.2674C94.4609 64.4115 95.9653 62.9087 97.8226 62.9087C99.6805 62.9087 101.185 64.4115 101.185 66.2674C101.185 68.1228 99.6805 69.6256 97.8226 69.6256C95.9653 69.6256 94.4609 68.1228 94.4609 66.2674Z" fill="#003D85"/>
<path d="M134.353 113.447C134.353 116.231 132.096 118.486 129.309 118.486C126.525 118.486 124.266 116.231 124.266 113.447C124.266 110.666 126.525 108.411 129.309 108.411C132.096 108.411 134.353 110.666 134.353 113.447Z" fill="#1599D0"/>
<path d="M315.356 75.442C313.329 75.442 311.687 73.8012 311.687 71.7786V38.0908C311.687 36.0677 313.329 34.427 315.356 34.427C317.381 34.427 319.024 36.0677 319.024 38.0908V71.7786C319.024 73.8012 317.381 75.442 315.356 75.442Z" fill="white"/>
<path d="M407.426 75.442C405.401 75.442 403.758 73.8012 403.758 71.7786V38.0908C403.758 36.0677 405.401 34.427 407.426 34.427C409.451 34.427 411.094 36.0677 411.094 38.0908V71.7786C411.094 73.8012 409.451 75.442 407.426 75.442Z" fill="white"/>
<path d="M384.46 34.427H362.821C360.796 34.427 359.153 36.0677 359.153 38.0908C359.153 40.114 360.796 41.7547 362.821 41.7547H369.973V71.7786C369.973 73.8012 371.615 75.442 373.641 75.442C375.665 75.442 377.309 73.8012 377.309 71.7786V41.7547H384.46C386.485 41.7547 388.128 40.114 388.128 38.0908C388.128 36.0677 386.485 34.427 384.46 34.427Z" fill="white"/>
<path d="M342.906 76.4583C335.108 76.4583 328.765 70.1216 328.765 62.334V47.5354C328.765 39.7474 335.108 33.4111 342.906 33.4111C346.682 33.4111 350.232 34.8801 352.902 37.5476C354.336 38.9776 354.336 41.2979 352.904 42.728C351.472 44.1598 349.149 44.1598 347.716 42.728C346.432 41.4448 344.722 40.7388 342.906 40.7388C339.153 40.7388 336.1 43.7864 336.1 47.5354V62.334C336.1 66.0807 339.153 69.1306 342.906 69.1306C344.722 69.1306 346.432 68.4242 347.716 67.1392C349.149 65.7092 351.472 65.7092 352.904 67.141C354.336 68.571 354.336 70.8914 352.902 72.3218C350.232 74.9888 346.682 76.4583 342.906 76.4583Z" fill="white"/>
<path d="M432.844 76.4565C427.589 76.4565 422.893 74.3042 419.965 70.5502C418.719 68.9534 419.004 66.6507 420.602 65.4065C422.197 64.1641 424.504 64.4473 425.75 66.0436C427.28 68.0046 429.865 69.1306 432.844 69.1306C436.533 69.1306 439.65 66.7183 439.65 63.8632C439.65 62.6915 439.65 60.507 431.912 58.4789C428.301 57.5301 418.705 55.0149 418.705 46.0044C418.705 39.0605 425.048 33.4111 432.844 33.4111C437.399 33.4111 441.4 35.282 444.409 38.8199C445.721 40.3618 445.532 42.6731 443.988 43.9831C442.445 45.2944 440.129 45.105 438.819 43.5635C437.202 41.6627 435.247 40.7388 432.844 40.7388C429.157 40.7388 426.04 43.1512 426.04 46.0044C426.04 47.1779 426.04 49.3619 433.776 51.39C437.388 52.337 446.983 54.8541 446.983 63.8632C446.983 70.8085 440.642 76.4565 432.844 76.4565Z" fill="white"/>
<path d="M252.095 36.7095V63.7157H257.504V36.7095H252.095ZM237.017 39.1049C231.247 39.1049 226.769 43.0426 226.769 48.643C226.769 54.1339 231.247 58.192 237.017 58.192C242.788 58.192 247.255 54.1339 247.255 48.643C247.255 43.0426 242.788 39.1049 237.017 39.1049ZM237.017 43.7318C239.82 43.7318 241.977 45.5256 241.977 48.643C241.977 51.651 239.82 53.4776 237.017 53.4776C234.214 53.4776 232.057 51.651 232.057 48.643C232.057 45.5256 234.214 43.7318 237.017 43.7318ZM232.418 61.0359V73.6585H258.478V69.3161H237.828V61.0359H232.418ZM272.056 36.9939V41.1394H264.654V45.3615H272.056V45.4819C272.056 50.0649 269.45 54.6152 263.351 56.5294L265.99 60.7515C270.304 59.3624 273.227 56.6497 274.859 53.1495C276.567 56.3653 279.447 58.8811 283.629 60.0952L286.191 55.8731C280.104 54.0464 277.454 49.7477 277.454 45.4819V45.3615H284.899V41.1394H277.454V36.9939H272.056ZM289.695 36.7095V47.6367H283.673V52.0119H289.695V64.5252H295.137V36.7095H289.695ZM270.26 62.2063V73.6585H295.991V69.3161H275.669V62.2063H270.26Z" fill="white"/>
<path d="M234.041 85.2397V97.7913H231.888V85.2397H234.041ZM239.625 90.0422C239.068 90.0422 238.629 90.3603 238.307 90.9951V97.7913H236.236V88.4622H238.188L238.238 89.3776C238.815 88.655 239.545 88.293 240.428 88.293C241.177 88.293 241.779 88.5547 242.236 89.0767C242.696 89.6002 242.926 90.4983 242.926 91.7725V97.7913H240.855V91.7538C240.855 91.119 240.752 90.6754 240.548 90.4246C240.342 90.1707 240.034 90.0422 239.625 90.0422ZM248.25 96.2365C249.107 96.2365 249.552 95.7208 249.587 94.6879H251.526C251.509 95.6832 251.184 96.4794 250.553 97.0766C249.926 97.6706 249.161 97.9668 248.262 97.9668C247.032 97.9668 246.119 97.5875 245.526 96.8258C244.931 96.0609 244.629 94.9951 244.616 93.6283V92.7067C244.616 91.3149 244.914 90.2334 245.513 89.4591C246.111 88.6817 247.028 88.293 248.262 88.293C249.254 88.293 250.04 88.6002 250.622 89.2146C251.207 89.8259 251.509 90.6926 251.526 91.8164H249.587C249.54 90.6174 249.091 90.0171 248.237 90.0171C247.588 90.0171 247.167 90.2553 246.976 90.7318C246.788 91.2083 246.693 91.8666 246.693 92.7067V93.5468C246.693 94.3995 246.788 95.0625 246.976 95.5343C247.164 96.0029 247.588 96.2365 248.25 96.2365ZM256.426 90.0422C255.864 90.0422 255.425 90.3478 255.108 90.9575V97.7913H253.037V84.55H255.108V89.2898C255.66 88.6252 256.344 88.293 257.16 88.293C257.934 88.293 258.555 88.561 259.024 89.0955C259.492 89.6268 259.727 90.528 259.727 91.7976V97.7913H257.656V91.7851C257.656 91.1425 257.552 90.6911 257.349 90.4309C257.143 90.1723 256.835 90.0422 256.426 90.0422ZM268.404 96.5499C268.153 96.8932 267.771 97.2145 267.262 97.5154C266.75 97.8164 266.091 97.9668 265.285 97.9668C264.075 97.9668 263.133 97.6079 262.46 96.8885C261.786 96.1706 261.45 95.1173 261.45 93.7286V92.8258C261.45 91.2506 261.792 90.1017 262.479 89.3776C263.17 88.655 264.031 88.293 265.065 88.293C266.24 88.293 267.105 88.6676 267.657 89.4152C268.209 90.1597 268.493 91.2428 268.51 92.6628V93.7976H263.527C263.54 94.6847 263.703 95.3133 264.017 95.6847C264.334 96.0531 264.798 96.2365 265.41 96.2365C266.251 96.2365 266.945 95.9214 267.494 95.2898L268.404 96.5499ZM265.059 90.0171C264.597 90.0171 264.24 90.1801 263.985 90.5061C263.734 90.829 263.587 91.4089 263.546 92.249H266.458V92.0296C266.433 91.4121 266.323 90.923 266.132 90.5625C265.944 90.1989 265.586 90.0171 265.059 90.0171ZM269.794 92.7631C269.794 91.3055 270.142 90.1958 270.842 89.434C271.545 88.6738 272.433 88.293 273.509 88.293C274.604 88.293 275.5 88.6738 276.195 89.434C276.894 90.1958 277.244 91.3055 277.244 92.7631V93.4967C277.244 94.9559 276.894 96.0656 276.195 96.8258C275.5 97.5875 274.609 97.9668 273.522 97.9668C272.438 97.9668 271.545 97.5875 270.842 96.8258C270.142 96.0656 269.794 94.9559 269.794 93.4967V92.7631ZM271.865 93.4967C271.865 94.4418 272.019 95.1362 272.329 95.5782C272.639 96.017 273.035 96.2365 273.522 96.2365C274.589 96.2365 275.138 95.3775 275.172 93.6597V92.7631C275.172 91.8399 275.017 91.1519 274.708 90.7005C274.397 90.2459 273.999 90.0171 273.509 90.0171C273.032 90.0171 272.639 90.2459 272.329 90.7005C272.019 91.1519 271.865 91.8399 271.865 92.7631V93.4967ZM282.305 90.0422C281.748 90.0422 281.309 90.3603 280.987 90.9951V97.7913H278.916V88.4622H280.868L280.918 89.3776C281.496 88.655 282.225 88.293 283.109 88.293C283.857 88.293 284.459 88.5547 284.916 89.0767C285.376 89.6002 285.606 90.4983 285.606 91.7725V97.7913H283.535V91.7538C283.535 91.119 283.432 90.6754 283.228 90.4246C283.022 90.1707 282.715 90.0422 282.305 90.0422Z" fill="white"/>
<path d="M298.716 86.1111V97.5216H296.758V86.1111H298.716ZM306.428 93.7913H308.392C308.337 95.0248 307.987 95.9825 307.344 96.6627C306.699 97.3398 305.766 97.6784 304.545 97.6784C303.33 97.6784 302.381 97.252 301.695 96.3994C301.008 95.5436 300.666 94.3477 300.666 92.8132V90.8258C300.666 89.2929 301.018 88.097 301.721 87.2396C302.427 86.3838 303.398 85.9543 304.633 85.9543C305.825 85.9543 306.732 86.2976 307.356 86.9825C307.984 87.6644 308.331 88.6361 308.398 89.8979H306.44C306.398 89.0546 306.246 88.459 305.982 88.1111C305.722 87.76 305.273 87.5844 304.633 87.5844C303.925 87.5844 303.412 87.8524 303.095 88.3869C302.781 88.923 302.624 89.7317 302.624 90.8132V92.8132C302.624 93.8414 302.759 94.6376 303.032 95.2019C303.308 95.7662 303.812 96.0483 304.545 96.0483C305.213 96.0483 305.682 95.8837 305.951 95.553C306.217 95.2238 306.377 94.6361 306.428 93.7913ZM309.186 87.7474V86.1111H316.88V87.7474H313.993V97.5216H312.042V87.7474H309.186ZM323.624 86.1111V97.5216H321.666V86.1111H323.624ZM328.7 90.4747C328.193 90.4747 327.793 90.7662 327.501 91.3461V97.5216H325.618V89.039H327.394L327.438 89.8728C327.961 89.2129 328.626 88.8822 329.434 88.8822C330.112 88.8822 330.658 89.1205 331.072 89.5969C331.489 90.0734 331.7 90.8916 331.7 92.0483V97.5216H329.817V92.0358C329.817 91.4559 329.723 91.0499 329.534 90.8195C329.349 90.5907 329.072 90.4747 328.7 90.4747ZM336.553 90.4747C336.046 90.4747 335.646 90.7662 335.354 91.3461V97.5216H333.471V89.039H335.247L335.291 89.8728C335.814 89.2129 336.479 88.8822 337.287 88.8822C337.965 88.8822 338.511 89.1205 338.925 89.5969C339.342 90.0734 339.553 90.8916 339.553 92.0483V97.5216H337.67V92.0358C337.67 91.4559 337.576 91.0499 337.387 90.8195C337.202 90.5907 336.924 90.4747 336.553 90.4747ZM341.079 92.9511C341.079 91.6267 341.396 90.6173 342.033 89.923C342.669 89.2302 343.477 88.8822 344.456 88.8822C345.455 88.8822 346.271 89.2302 346.903 89.923C347.534 90.6173 347.851 91.6267 347.851 92.9511V93.6157C347.851 94.9449 347.534 95.9542 346.903 96.6439C346.271 97.3335 345.46 97.6784 344.468 97.6784C343.48 97.6784 342.669 97.3335 342.033 96.6439C341.396 95.9542 341.079 94.9449 341.079 93.6157V92.9511ZM342.962 93.6157C342.962 94.4731 343.102 95.1047 343.383 95.5091C343.662 95.9104 344.024 96.111 344.468 96.111C345.438 96.111 345.938 95.3304 345.968 93.7662V92.9511C345.968 92.111 345.825 91.4841 345.541 91.0703C345.261 90.6565 344.898 90.4496 344.456 90.4496C344.02 90.4496 343.662 90.6565 343.383 91.0703C343.102 91.4841 342.962 92.111 342.962 92.9511V93.6157ZM355.119 89.039L352.721 97.5216H351.064L348.642 89.039H350.587L351.905 94.8069L353.173 89.039H355.119ZM360.397 97.5216C360.317 97.3335 360.253 97.0828 360.202 96.7693C359.771 97.3759 359.208 97.6784 358.514 97.6784C357.802 97.6784 357.212 97.4589 356.744 97.0201C356.275 96.5781 356.041 95.9605 356.041 95.1706C356.041 94.3304 356.319 93.6502 356.876 93.1267C357.436 92.6048 358.283 92.343 359.418 92.343H360.133V91.5781C360.133 90.785 359.801 90.3869 359.135 90.3869C358.784 90.3869 358.517 90.4919 358.338 90.7004C358.163 90.9104 358.075 91.1753 358.075 91.4966H356.192C356.192 90.8195 356.462 90.2161 357.002 89.6847C357.541 89.1502 358.272 88.8822 359.198 88.8822C360.017 88.8822 360.693 89.0922 361.225 89.5092C361.756 89.9277 362.022 90.6251 362.022 91.6032V95.5467C362.022 96.3163 362.118 96.9307 362.311 97.39V97.5216H360.397ZM358.891 96.1173C359.179 96.1173 359.432 96.0514 359.65 95.9166C359.867 95.7787 360.028 95.6251 360.133 95.4527V93.5467H359.575C359.055 93.5467 358.649 93.6815 358.357 93.948C358.068 94.216 357.924 94.5655 357.924 94.995C357.924 95.7442 358.246 96.1173 358.891 96.1173ZM367.335 97.4903C367.009 97.6157 366.634 97.6784 366.212 97.6784C365.65 97.6784 365.184 97.4997 364.812 97.1392C364.443 96.7756 364.26 96.1549 364.26 95.2771V90.481H363.13V89.039H364.26V86.97H366.143V89.039H367.322V90.481H366.143V95.1455C366.143 95.5264 366.201 95.7756 366.318 95.8916C366.439 96.0044 366.604 96.0608 366.814 96.0608C367.015 96.0608 367.192 96.0358 367.348 95.9856L367.335 97.4903ZM368.747 86.8383C368.747 86.5421 368.837 86.296 369.017 86.0985C369.196 85.8979 369.452 85.7976 369.783 85.7976C370.104 85.7976 370.357 85.8979 370.542 86.0985C370.726 86.296 370.818 86.5421 370.818 86.8383C370.818 87.1315 370.726 87.376 370.542 87.5719C370.357 87.7694 370.104 87.8666 369.783 87.8666C369.452 87.8666 369.196 87.7694 369.017 87.5719C368.837 87.376 368.747 87.1315 368.747 86.8383ZM370.724 89.039V97.5216H368.829V89.039H370.724ZM372.367 92.9511C372.367 91.6267 372.684 90.6173 373.321 89.923C373.956 89.2302 374.764 88.8822 375.743 88.8822C376.743 88.8822 377.559 89.2302 378.191 89.923C378.822 90.6173 379.139 91.6267 379.139 92.9511V93.6157C379.139 94.9449 378.822 95.9542 378.191 96.6439C377.559 97.3335 376.748 97.6784 375.756 97.6784C374.767 97.6784 373.956 97.3335 373.321 96.6439C372.684 95.9542 372.367 94.9449 372.367 93.6157V92.9511ZM374.25 93.6157C374.25 94.4731 374.389 95.1047 374.67 95.5091C374.949 95.9104 375.312 96.111 375.756 96.111C376.726 96.111 377.226 95.3304 377.256 93.7662V92.9511C377.256 92.111 377.113 91.4841 376.829 91.0703C376.548 90.6565 376.186 90.4496 375.743 90.4496C375.307 90.4496 374.949 90.6565 374.67 91.0703C374.389 91.4841 374.25 92.111 374.25 92.9511V93.6157ZM383.742 90.4747C383.235 90.4747 382.835 90.7662 382.543 91.3461V97.5216H380.661V89.039H382.437L382.481 89.8728C383.003 89.2129 383.668 88.8822 384.476 88.8822C385.154 88.8822 385.7 89.1205 386.114 89.5969C386.532 90.0734 386.742 90.8916 386.742 92.0483V97.5216H384.859V92.0358C384.859 91.4559 384.765 91.0499 384.577 90.8195C384.392 90.5907 384.114 90.4747 383.742 90.4747ZM397.262 94.5687C397.262 94.122 397.151 93.7599 396.93 93.4841C396.707 93.2082 396.167 92.9057 395.31 92.575C394.457 92.2458 393.737 91.8258 393.152 91.3148C392.569 90.8007 392.268 90.1016 392.248 89.2145V89.1205C392.248 88.1894 392.565 87.4277 393.202 86.8383C393.837 86.249 394.677 85.9543 395.718 85.9543C396.826 85.9543 397.691 86.296 398.31 86.9763C398.929 87.6581 399.239 88.4794 399.239 89.4402H397.275C397.275 88.8979 397.151 88.4496 396.905 88.0985C396.661 87.7443 396.258 87.5656 395.693 87.5656C395.179 87.5656 394.802 87.7145 394.564 88.0108C394.328 88.3086 394.212 88.6753 394.212 89.1142C394.212 89.5327 394.372 89.8822 394.695 90.1612C395.022 90.4371 395.48 90.6941 396.07 90.9324C397.165 91.3085 397.965 91.7787 398.467 92.343C398.969 92.9073 399.22 93.6439 399.22 94.5499C399.22 95.5154 398.913 96.2787 398.298 96.8383C397.686 97.3994 396.843 97.6784 395.769 97.6784C395.136 97.6784 394.528 97.5436 393.942 97.2771C393.36 97.0107 392.883 96.6094 392.511 96.0734C392.138 95.5342 391.953 94.8602 391.953 94.0483H393.917C393.917 94.763 394.083 95.2803 394.419 95.5969C394.753 95.9151 395.204 96.0734 395.769 96.0734C396.286 96.0734 396.666 95.9339 396.905 95.6533C397.143 95.3743 397.262 95.0123 397.262 94.5687ZM406.893 89.039V100.782H405.004V96.8445C404.568 97.4009 403.995 97.6784 403.284 97.6784C402.38 97.6784 401.685 97.3367 401.201 96.6502C400.714 95.9605 400.472 94.9496 400.472 93.6157V92.9511C400.472 91.564 400.714 90.5405 401.201 89.8791C401.685 89.2145 402.384 88.8822 403.297 88.8822C404.062 88.8822 404.668 89.2051 405.117 89.8477L405.217 89.039H406.893ZM402.355 93.6157C402.355 94.4652 402.465 95.0938 402.688 95.5028C402.914 95.9088 403.287 96.111 403.811 96.111C404.346 96.111 404.743 95.879 405.004 95.4151V91.1581C404.731 90.6863 404.34 90.4496 403.83 90.4496C402.876 90.4496 402.384 91.2333 402.355 92.8007V93.6157ZM413.061 97.5216L413.023 96.7818C412.562 97.3806 411.925 97.6784 411.109 97.6784C410.406 97.6784 409.836 97.4339 409.402 96.9448C408.97 96.4527 408.755 95.6439 408.755 94.5185V89.039H410.638V94.5373C410.638 95.1314 410.734 95.5373 410.927 95.7536C411.118 95.9715 411.338 96.0796 411.586 96.0796C412.229 96.0796 412.686 95.7975 412.954 95.2333V89.039H414.837V97.5216H413.061ZM420.812 97.5216C420.732 97.3335 420.667 97.0828 420.617 96.7693C420.186 97.3759 419.622 97.6784 418.929 97.6784C418.216 97.6784 417.626 97.4589 417.159 97.0201C416.69 96.5781 416.456 95.9605 416.456 95.1706C416.456 94.3304 416.734 93.6502 417.291 93.1267C417.851 92.6048 418.698 92.343 419.833 92.343H420.548V91.5781C420.548 90.785 420.215 90.3869 419.55 90.3869C419.199 90.3869 418.932 90.4919 418.753 90.7004C418.577 90.9104 418.489 91.1753 418.489 91.4966H416.607C416.607 90.8195 416.877 90.2161 417.416 89.6847C417.956 89.1502 418.687 88.8822 419.613 88.8822C420.432 88.8822 421.108 89.0922 421.64 89.5092C422.17 89.9277 422.437 90.6251 422.437 91.6032V95.5467C422.437 96.3163 422.533 96.9307 422.726 97.39V97.5216H420.812ZM419.305 96.1173C419.594 96.1173 419.847 96.0514 420.065 95.9166C420.281 95.7787 420.443 95.6251 420.548 95.4527V93.5467H419.989C419.47 93.5467 419.064 93.6815 418.772 93.948C418.483 94.216 418.339 94.5655 418.339 94.995C418.339 95.7442 418.66 96.1173 419.305 96.1173ZM427.474 90.7631C426.841 90.7631 426.404 91.0671 426.162 91.6722V97.5216H424.273V89.039H426.068L426.118 89.8791C426.477 89.2145 426.968 88.8822 427.593 88.8822C427.844 88.8822 428.035 88.9183 428.17 88.9888L428.164 90.8258C427.938 90.785 427.707 90.7631 427.474 90.7631ZM435.372 96.3931C435.141 96.7066 434.795 96.9997 434.33 97.2709C433.866 97.542 433.265 97.6784 432.529 97.6784C431.432 97.6784 430.577 97.3524 429.962 96.7003C429.35 96.0452 429.046 95.0875 429.046 93.8289V93.0076C429.046 91.575 429.356 90.5295 429.981 89.8728C430.609 89.2129 431.393 88.8822 432.334 88.8822C433.401 88.8822 434.186 89.2239 434.688 89.9042C435.19 90.5813 435.449 91.5656 435.466 92.8571V93.8916H430.935C430.947 94.6988 431.095 95.2709 431.38 95.6094C431.669 95.9448 432.091 96.111 432.648 96.111C433.409 96.111 434.038 95.8226 434.537 95.2458L435.372 96.3931ZM432.328 90.4496C431.909 90.4496 431.584 90.5985 431.355 90.8947C431.125 91.1925 430.991 91.7207 430.954 92.4809H433.596V92.2866C433.574 91.7223 433.478 91.2756 433.307 90.9449C433.135 90.6157 432.808 90.4496 432.328 90.4496Z" fill="white"/>
</svg>
