<svg width="103" height="35" viewBox="0 0 103 35" fill="none" xmlns="http://www.w3.org/2000/svg">
<path d="M14.922 0.27V11.646H11.88V0.27H14.922ZM5.058 0.288001C8.064 0.288001 10.116 2.124 10.116 4.896C10.116 7.686 8.064 9.504 5.058 9.504C2.052 9.504 0 7.686 0 4.896C0 2.124 2.052 0.288001 5.058 0.288001ZM5.058 2.826C3.888 2.826 3.024 3.564 3.024 4.896C3.024 6.228 3.888 6.966 5.058 6.966C6.228 6.966 7.092 6.228 7.092 4.896C7.092 3.564 6.228 2.826 5.058 2.826ZM4.446 10.26V12.906H15.138V15.642H1.35V10.26H4.446Z" fill="#FC5B2F"/>
<path d="M21.8505 7.578C20.6625 8.982 18.8625 9.99 16.7385 10.044V7.398C18.7185 7.218 19.9965 5.778 20.3205 4.122H16.9185V1.584H20.3025V0H23.3985V1.584H26.7825V3.654H28.3665V0.27H31.4085V11.7H28.3665V6.462H26.3505V4.122H23.3985C23.3445 4.518 23.2725 4.896 23.1465 5.274L27.2685 7.686L25.7745 9.954L21.8505 7.578ZM20.7525 12.96H31.6245V15.642H17.6565V10.854H20.7525V12.96Z" fill="#FC5B2F"/>
<path d="M37.4418 0.72H40.7178V15.39H37.4418V0.72Z" fill="#FC5B2F"/>
<path d="M49.6129 15.75C45.0949 15.75 41.7649 12.492 41.7649 8.046C41.7649 3.6 45.0949 0.342 49.6129 0.342C53.6449 0.342 56.3449 2.772 56.9389 5.868H53.6269C53.2849 4.464 51.7909 3.348 49.6849 3.348C47.0209 3.348 45.0409 5.31 45.0409 8.046C45.0409 10.764 47.0209 12.744 49.6849 12.744C51.7909 12.744 53.5189 11.358 53.7709 10.026H57.0829C56.6329 12.978 53.6809 15.75 49.6129 15.75Z" fill="#FC5B2F"/>
<path d="M69.3915 0.72V3.618H64.6215V15.39H61.3456V3.618H56.5755V0.72H69.3915Z" fill="#FC5B2F"/>
<path d="M11.2142 22.27V34.226H8.84817V22.27H11.2142ZM3.76617 22.41C6.02017 22.41 7.51817 24.174 7.51817 28.108C7.51817 32.042 6.02017 33.806 3.76617 33.806C1.51217 33.806 0.000167847 32.042 0.000167847 28.108C0.000167847 24.174 1.51217 22.41 3.76617 22.41ZM3.76617 24.58C2.96817 24.58 2.33817 25.434 2.33817 28.108C2.33817 30.796 2.96817 31.636 3.76617 31.636C4.55017 31.636 5.18017 30.796 5.18017 28.108C5.18017 25.434 4.55017 24.58 3.76617 24.58Z" fill="#111111"/>
<path d="M19.949 31.594H24.793V33.806H12.697V31.594H17.541V29.424H13.355V22.48H15.777V27.212H24.205V29.424H19.949V31.594Z" fill="#111111"/>
<path d="M35.4318 22.27H37.6438V34.226H35.4318V22.27ZM32.4218 26.666V22.326H34.6058V34.016H32.4218V28.906H31.3858V33.666H25.9538V22.55H28.1098V26.078H29.2298V22.55H31.3858V26.666H32.4218ZM28.1098 31.538H29.2298V28.192H28.1098V31.538Z" fill="#111111"/>
<path d="M50.3546 22.27V34.226H47.9886V22.27H50.3546ZM42.9066 22.41C45.1606 22.41 46.6586 24.174 46.6586 28.108C46.6586 32.042 45.1606 33.806 42.9066 33.806C40.6526 33.806 39.1406 32.042 39.1406 28.108C39.1406 24.174 40.6526 22.41 42.9066 22.41ZM42.9066 24.58C42.1086 24.58 41.4786 25.434 41.4786 28.108C41.4786 30.796 42.1086 31.636 42.9066 31.636C43.6906 31.636 44.3206 30.796 44.3206 28.108C44.3206 25.434 43.6906 24.58 42.9066 24.58Z" fill="#111111"/>
<path d="M55.8974 27.254C54.9174 28.682 53.5034 29.648 51.8094 29.746V27.548C53.6714 27.324 54.9034 25 54.9454 22.326L57.3254 22.466C57.3254 23.46 57.1574 24.44 56.8494 25.35L59.2154 27.254V25.63H61.1334V24.93H59.2154V22.998H61.1334V22.27H63.4574V31.132H61.1334V27.562H59.6074L60.1814 28.024L58.7254 29.634L55.8974 27.254ZM55.1694 32.112H63.6254V34.226H52.7614V30.152H55.1694V32.112Z" fill="#111111"/>
<path d="M70.8482 26.82C69.4622 28.696 67.4042 29.886 65.1222 29.9V27.66C67.5022 27.646 69.7142 25.434 70.1482 22.228L72.5562 22.606C72.4442 23.446 72.2202 24.23 71.8982 24.972L76.9942 28.038L75.7482 29.956L70.8482 26.82ZM64.8842 33.806V31.594H76.9802V33.806H64.8842Z" fill="#111111"/>
<path d="M87.6469 22.27H89.831V34.226H87.6469V22.27ZM84.749 31.076V22.326H86.905V34.016H84.749V33.022H82.677V31.076H84.749ZM81.655 28.122V27.38H78.267V25.42H81.655V24.51H78.267V22.55H83.825V28.122H81.655ZM84.1889 30.306C83.6149 30.488 82.817 30.6 81.949 30.642V33.918H79.793V30.656H77.931V28.682H81.333C82.355 28.682 83.4749 28.57 84.1889 28.374V30.306Z" fill="#111111"/>
<path d="M100.232 22.27H102.598V34.226H100.232V28.99H98.6497C98.4397 32.308 97.0397 33.806 94.9817 33.806C92.7557 33.806 91.2717 32.042 91.2717 28.108C91.2717 24.174 92.7557 22.41 94.9817 22.41C96.9417 22.41 98.3137 23.768 98.6217 26.778H100.232V22.27ZM94.9817 31.636C95.7517 31.636 96.3397 30.796 96.3397 28.108C96.3397 25.434 95.7517 24.58 94.9817 24.58C94.1977 24.58 93.6097 25.434 93.6097 28.108C93.6097 30.796 94.1977 31.636 94.9817 31.636Z" fill="#111111"/>
</svg>
